<svg class="animated" id="freepik_stories-healthy-food-vs-fast-food" xmlns="http://www.w3.org/2000/svg" viewBox="0 0 750 500" version="1.1" xmlns:xlink="http://www.w3.org/1999/xlink" xmlns:svgjs="http://svgjs.com/svgjs"><style>svg#freepik_stories-healthy-food-vs-fast-food:not(.animated) .animable {opacity: 0;}svg#freepik_stories-healthy-food-vs-fast-food.animated #freepik--background-complete--inject-38 {animation: 6s Infinite  linear heartbeat;animation-delay: 0s;}svg#freepik_stories-healthy-food-vs-fast-food.animated #freepik--Speech_Bubble_2--inject-38 {animation: 6s Infinite  linear spin;animation-delay: 0s;}svg#freepik_stories-healthy-food-vs-fast-food.animated #freepik--Speech_Bubble_1--inject-38 {animation: 3s Infinite  linear heartbeat;animation-delay: 0s;}svg#freepik_stories-healthy-food-vs-fast-food.animated #freepik--Fast_Food--inject-38 {animation: 6s Infinite  linear floating;animation-delay: 0s;}svg#freepik_stories-healthy-food-vs-fast-food.animated #freepik--Healthy_Food--inject-38 {animation: 3s Infinite  linear floating;animation-delay: 0s;}            @keyframes heartbeat {                0% {                    transform: scale(1);                }                10% {                    transform: scale(1.1);                }                30% {                    transform: scale(1);                }                40% {                    transform: scale(1);                }                50% {                    transform: scale(1.1);                }                60% {                    transform: scale(1);                }                100% {                    transform: scale(1);                }            }                 @keyframes spin {             from {                 transform: rotate(0);               }               to {                 transform: rotate(360deg);               }         }                 @keyframes floating {                0% {                    opacity: 1;                    transform: translateY(0px);                }                50% {                    transform: translateY(-10px);                }                100% {                    opacity: 1;                    transform: translateY(0px);                }            }        </style><g id="freepik--background-complete--inject-38" class="animable" style="transform-origin: 375px 224.355px;"><g id="eloe3yrjtru5" class="animable" style="transform-origin: 375px 231.058px;"><g id="eldq9mxh9ubp9" class="animable" style="transform-origin: 375px 213.937px;"><g id="el538jfasdcuj" class="animable" style="transform-origin: 375px 183.342px;"><g id="elk4te1jurqc" class="animable" style="transform-origin: 479.147px 183.342px;"><path d="M673.734,320.841h-180.746c-3.232,0-5.862-2.63-5.862-5.862V51.705c0-3.232,2.63-5.862,5.862-5.862h180.746c3.232,0,5.862,2.629,5.862,5.862V314.979c0,3.233-2.63,5.862-5.862,5.862ZM492.988,46.094c-3.095,0-5.612,2.517-5.612,5.612V314.979c0,3.095,2.518,5.612,5.612,5.612h180.746c3.095,0,5.612-2.517,5.612-5.612V51.705c0-3.094-2.518-5.612-5.612-5.612h-180.746Z" style="fill: rgb(224, 224, 224); transform-origin: 583.361px 183.342px;" id="elxl03vzk4isl" class="animable"></path><path d="M465.306,320.841h-180.747c-3.232,0-5.862-2.63-5.862-5.862V51.705c0-3.232,2.629-5.862,5.862-5.862h180.747c3.232,0,5.862,2.629,5.862,5.862V314.979c0,3.233-2.63,5.862-5.862,5.862ZM284.559,46.094c-3.094,0-5.612,2.517-5.612,5.612V314.979c0,3.095,2.518,5.612,5.612,5.612h180.747c3.095,0,5.612-2.517,5.612-5.612V51.705c0-3.094-2.518-5.612-5.612-5.612h-180.747Z" style="fill: rgb(224, 224, 224); transform-origin: 374.933px 183.342px;" id="elsl3azhzs229" class="animable"></path></g><path d="M257.012,320.841H76.266c-3.232,0-5.862-2.63-5.862-5.862V51.705c0-3.232,2.629-5.862,5.862-5.862h180.746c3.232,0,5.862,2.629,5.862,5.862V314.979c0,3.233-2.63,5.862-5.862,5.862ZM76.266,46.094c-3.094,0-5.612,2.517-5.612,5.612V314.979c0,3.095,2.518,5.612,5.612,5.612h180.746c3.095,0,5.612-2.517,5.612-5.612V51.705c0-3.094-2.517-5.612-5.612-5.612H76.266Z" style="fill: rgb(224, 224, 224); transform-origin: 166.639px 183.342px;" id="elj6s99xg1p3b" class="animable"></path></g><rect y="381.91" width="750" height=".12" style="fill: rgb(224, 224, 224); transform-origin: 375px 381.97px;" id="eljfvtzx3d7u" class="animable"></rect></g><g id="elq52xco00f2" class="animable" style="transform-origin: 375px 407.381px;"><rect x="653.626" y="411.287" width="55.729" height=".421" style="fill: rgb(235, 235, 235); transform-origin: 681.49px 411.498px;" id="el67asmmmbqbc" class="animable"></rect><rect x="495.044" y="415.852" width="14.627" height=".421" style="fill: rgb(235, 235, 235); transform-origin: 502.357px 416.062px;" id="ely6wrxqho6zd" class="animable"></rect><rect x="40.645" y="398.489" width="72.675" height=".421" style="fill: rgb(235, 235, 235); transform-origin: 76.9825px 398.7px;" id="elibcw2pbiqpk" class="animable"></rect><rect x="128.299" y="398.489" width="10.655" height=".421" style="fill: rgb(235, 235, 235); transform-origin: 133.626px 398.7px;" id="elp7xvwy9sgh" class="animable"></rect><rect x="173.586" y="405.593" width="157.613" height=".421" style="fill: rgb(235, 235, 235); transform-origin: 252.393px 405.804px;" id="elel74d49mre" class="animable"></rect></g></g><g id="el9id6rj558im" class="animable" style="transform-origin: 297.507px 130.042px;"><path d="M322.522,117.441l-19.366,2.823c-1.988,.29-3.834-1.087-4.124-3.074l-2.788-19.126c-.514-3.526-1.82-6.711-4.481-7.891-2.307-1.024-4.882,.846-4.909,3.37-.064,5.814-1.038,17.724-7.397,25.969-1.975,2.561-3.053,7.393-2.586,10.594l4.984,34.188c.488,3.346,6.767,5.201,13.917,4.159l29.32-4.274c5.676-.827,9.607-6.1,8.779-11.776l-.646-4.431c-.475-3.258,.069-6.529,1.148-9.64,.78-2.252,1.011-4.663,.666-7.03l-.741-5.081c-.827-5.676-6.099-9.606-11.775-8.779Z" style="fill: rgb(235, 235, 235); transform-origin: 305.979px 129.315px;" id="el885e443nofc" class="animable"></path><g id="elsy1uxqj4jhp"><rect x="262.839" y="126.717" width="12.644" height="42.792" style="fill: rgb(235, 235, 235); transform-origin: 269.161px 148.113px; transform: rotate(-8.294deg);" class="animable"></rect></g></g><g id="elja0yksh17p9" class="animable" style="transform-origin: 650.443px 127.277px;"><path d="M630.602,149.102l18.301-6.934c1.878-.712,3.978,.234,4.69,2.112l6.848,18.074c1.262,3.332,3.225,6.16,6.077,6.739,2.474,.502,4.584-1.879,4.067-4.35-1.192-5.691-2.81-17.53,1.621-26.954,1.376-2.927,1.386-7.878,.24-10.903l-12.241-32.308c-1.198-3.162-7.729-3.619-14.486-1.058l-27.708,10.498c-5.364,2.032-8.065,8.028-6.032,13.392l1.586,4.187c1.167,3.079,1.341,6.39,.959,9.661-.276,2.367,.019,4.771,.866,7.008l1.819,4.802c2.032,5.364,8.028,8.064,13.392,6.032Z" style="fill: rgb(235, 235, 235); transform-origin: 642.288px 130.513px;" id="elqw7e8ztzpdl" class="animable"></path><g id="el3uvatowetgz"><rect x="669.769" y="86.245" width="12.644" height="42.792" style="fill: rgb(235, 235, 235); transform-origin: 676.091px 107.641px; transform: rotate(159.249deg);" class="animable"></rect></g></g><g id="eloxvfgof3sui" class="animable" style="transform-origin: 439.944px 163.577px;"><path d="M416.607,165.333l13.212,3.99c1.356,.409,2.123,1.841,1.714,3.197l-3.94,13.049c-.726,2.406-.845,4.83,.501,6.38,1.167,1.344,3.371,.92,4.143-.684,1.78-3.694,5.964-11.008,12.492-14.372,2.028-1.045,4.161-3.809,4.821-5.992l7.043-23.324c.689-2.283-2.766-5.346-7.644-6.819l-20.003-6.041c-3.872-1.169-7.96,1.022-9.129,4.894l-.913,3.023c-.671,2.223-1.997,4.149-3.617,5.813-1.172,1.205-2.04,2.676-2.528,4.29l-1.047,3.467c-1.169,3.872,1.022,7.959,4.894,9.129Z" style="fill: rgb(235, 235, 235); transform-origin: 434.039px 163.577px;" id="elsn5dxqb25g" class="animable"></path><g id="elmzczch1vrcg"><rect x="455.401" y="146.618" width="8.917" height="30.177" style="fill: rgb(235, 235, 235); transform-origin: 459.86px 161.707px; transform: rotate(-163.197deg);" class="animable"></rect></g></g><g id="el77sct6golw" class="animable" style="transform-origin: 538.232px 61.2983px;"><path d="M521.388,72.373l13.482-2.953c1.384-.303,2.751,.573,3.054,1.957l2.917,13.315c.538,2.455,1.616,4.63,3.546,5.327,1.674,.605,3.392-.839,3.285-2.616-.246-4.093-.155-12.52,3.906-18.638,1.262-1.9,1.778-5.353,1.29-7.582l-5.214-23.8c-.51-2.329-5.02-3.32-9.997-2.23l-20.411,4.471c-3.951,.866-6.453,4.771-5.587,8.722l.676,3.084c.497,2.268,.277,4.596-.326,6.839-.436,1.623-.478,3.331-.117,4.978l.775,3.537c.866,3.951,4.77,6.453,8.722,5.587Z" style="fill: rgb(245, 245, 245); transform-origin: 532.269px 62.4348px;" id="elp2tii5j6hai" class="animable"></path><g id="el7x75feblk5h"><rect x="552.934" y="33.042" width="8.917" height="30.177" style="fill: rgb(245, 245, 245); transform-origin: 557.392px 48.1305px; transform: rotate(167.644deg);" class="animable"></rect></g></g><g id="ely1dc1w20abp" class="animable" style="transform-origin: 185.625px 203.619px;"><path d="M167.451,194.465l14.069,2.051c1.444,.21,2.785-.79,2.996-2.234l2.025-13.895c.373-2.562,1.322-4.875,3.255-5.733,1.676-.744,3.546,.615,3.567,2.448,.046,4.224,.754,12.876,5.374,18.866,1.435,1.861,2.218,5.371,1.879,7.697l-3.621,24.837c-.354,2.431-4.916,3.778-10.11,3.021l-21.3-3.105c-4.124-.601-6.979-4.431-6.378-8.555l.469-3.219c.345-2.367-.05-4.743-.834-7.004-.567-1.636-.734-3.387-.484-5.107l.538-3.691c.601-4.124,4.431-6.979,8.555-6.378Z" style="fill: rgb(235, 235, 235); transform-origin: 179.47px 203.09px;" id="elnefk3andd7t" class="animable"></path><g id="el3iqwqb7ranc"><rect x="201.624" y="201.204" width="9.186" height="31.087" style="fill: rgb(235, 235, 235); transform-origin: 206.217px 216.748px; transform: rotate(-171.706deg);" class="animable"></rect></g></g><g id="el2l2js24rrss" class="animable" style="transform-origin: 79.4707px 109.96px;"><path d="M63.699,94.405l14.049,4.806c1.442,.493,3.011-.276,3.504-1.718l4.746-13.875c.875-2.558,2.293-4.751,4.442-5.26,1.863-.442,3.523,1.312,3.191,3.198-.763,4.345-1.697,13.363,1.895,20.399,1.116,2.186,1.246,5.939,.451,8.261l-8.484,24.801c-.83,2.427-5.772,2.935-10.959,1.161l-21.27-7.276c-4.118-1.409-6.314-5.888-4.905-10.006l1.099-3.214c.809-2.364,.859-4.879,.488-7.35-.268-1.788-.103-3.618,.484-5.335l1.261-3.686c1.408-4.118,5.888-6.314,10.006-4.905Z" style="fill: rgb(245, 245, 245); transform-origin: 73.2086px 107.762px;" id="eldbnizndd82" class="animable"></path><g id="eljtxsc314ivs"><rect x="94.42" y="108.487" width="9.593" height="32.466" style="fill: rgb(245, 245, 245); transform-origin: 99.2165px 124.72px; transform: rotate(-161.115deg);" class="animable"></rect></g></g></g><g id="freepik--Shadow--inject-38" class="animable" style="transform-origin: 386.419px 437.734px;"><path d="M718.634,437.735c0,18.218-148.738,32.987-332.215,32.987s-332.215-14.769-332.215-32.987,148.738-32.988,332.215-32.988,332.215,14.769,332.215,32.988Z" style="fill: rgb(245, 245, 245); transform-origin: 386.419px 437.734px;" id="eltg2ur0ahn" class="animable"></path></g><g id="freepik--Speech_Bubble_2--inject-38" class="animable" style="transform-origin: 532.775px 121.988px;"><g id="el9glnw3ipku4" class="animable" style="transform-origin: 532.775px 121.988px;"><g id="elqg7gi5nywac" class="animable" style="transform-origin: 532.775px 121.988px;"><path d="M573.461,100.993c-8.641-24.469-35.481-37.301-59.951-28.661-24.469,8.641-37.302,35.482-28.661,59.951,6.671,18.89,24.195,30.794,43.095,31.287l9.122,10.768,6.987-13.173c.248-.083,.499-.135,.747-.222,24.469-8.64,37.301-35.481,28.66-59.951Z" style="fill: rgb(64, 123, 255); transform-origin: 529.155px 121.988px;" id="el6nnegrojnt5" class="animable"></path><path d="M582.787,117.385h-.037c-.275-.021-.482-.261-.463-.536,1.085-15.011-6.014-30.521-18.084-39.513-.222-.165-.268-.478-.103-.7,.167-.222,.48-.266,.7-.102,12.337,9.191,19.592,25.043,18.484,40.387-.02,.263-.239,.464-.498,.464Z" style="fill: rgb(64, 123, 255); transform-origin: 573.698px 96.91px;" id="elcn85rxtguo" class="animable"></path><path d="M580.628,131.151c-.066,0-.135-.013-.199-.042-.254-.11-.369-.405-.259-.658,.897-2.064,1.37-4.345,1.365-6.596,0-.276,.223-.5,.499-.501h0c.275,0,.499,.223,.5,.499,.005,2.388-.496,4.807-1.449,6.997-.081,.188-.266,.3-.458,.3Z" style="fill: rgb(64, 123, 255); transform-origin: 581.331px 127.252px;" id="el06tkv5501eh" class="animable"></path></g><g id="elryje7k5jv0h"><rect x="509.448" y="113.509" width="40.73" height="8.936" style="fill: rgb(255, 255, 255); transform-origin: 529.813px 117.977px; transform: rotate(41.237deg);" class="animable"></rect></g><g id="el7ruau9iv4n6"><rect x="509.448" y="113.509" width="40.73" height="8.936" style="fill: rgb(255, 255, 255); transform-origin: 529.813px 117.977px; transform: rotate(135deg);" class="animable"></rect></g></g></g><g id="freepik--Speech_Bubble_1--inject-38" class="animable" style="transform-origin: 189.221px 113.387px;"><g id="el9154t4fml9s" class="animable" style="transform-origin: 189.221px 113.387px;"><g id="elkuma940ki9" class="animable" style="transform-origin: 189.221px 113.387px;"><path d="M229.619,92.539c-8.58-24.297-35.232-37.039-59.529-28.459-24.298,8.58-37.04,35.232-28.46,59.53,6.624,18.758,24.025,30.578,42.792,31.067l9.058,10.692,6.938-13.08c.247-.082,.496-.134,.742-.221,24.297-8.579,37.039-35.232,28.459-59.53Z" style="fill: rgb(64, 123, 255); transform-origin: 185.625px 113.387px;" id="elei3fwwqbrk8" class="animable"></path><path d="M238.879,108.819h-.037c-.275-.021-.482-.261-.462-.536,1.076-14.905-5.972-30.304-17.956-39.232-.221-.165-.267-.478-.102-.7s.479-.267,.7-.102c12.25,9.126,19.456,24.869,18.355,40.106-.019,.263-.238,.464-.498,.464Z" style="fill: rgb(64, 123, 255); transform-origin: 229.855px 88.4843px;" id="elfucadxp4hfa" class="animable"></path><path d="M236.735,122.489c-.066,0-.134-.013-.199-.042-.253-.11-.369-.405-.259-.658,.892-2.049,1.361-4.313,1.355-6.548,0-.276,.223-.5,.499-.501h0c.275,0,.5,.223,.5,.499,.005,2.372-.492,4.774-1.438,6.95-.082,.188-.266,.3-.459,.3Z" style="fill: rgb(64, 123, 255); transform-origin: 237.433px 118.615px;" id="ellewf5qvm4gf" class="animable"></path></g><polygon points="185.055 130.041 161.338 112.381 167.501 104.106 183.404 115.947 205.255 89.88 213.162 96.508 185.055 130.041" style="fill: rgb(255, 255, 255); transform-origin: 187.25px 109.96px;" id="el6jpo3q1szh6" class="animable"></polygon></g></g><g id="freepik--Fast_Food--inject-38" class="animable animator-active" style="transform-origin: 551.059px 306.958px;"><g id="el8veu01rbzy6" class="animable" style="transform-origin: 645.148px 360.37px;"><g id="elsnr1b66d2zl" class="animable" style="transform-origin: 619.514px 325.231px;"><polygon points="611.588 303.31 617.722 348.869 627.441 347.255 620.247 301.593 611.588 303.31" style="fill: rgb(255, 132, 49); transform-origin: 619.514px 325.231px;" id="elmysttr9caw" class="animable"></polygon><g id="elw0bgonzbkj"><polygon points="611.588 303.31 617.722 348.869 627.441 347.255 620.247 301.593 611.588 303.31" style="opacity: 0.3; transform-origin: 619.514px 325.231px;" class="animable"></polygon></g></g><g id="elcycv3yx3fpg" class="animable" style="transform-origin: 649.738px 327.698px;"><polygon points="645.349 351.685 642.353 304.688 652.157 303.711 657.122 349.669 645.349 351.685" style="fill: rgb(255, 132, 49); transform-origin: 649.738px 327.698px;" id="eleadg8tgpl2" class="animable"></polygon><g id="elpw0q27qdwpe"><polygon points="645.349 351.685 642.353 304.688 652.157 303.711 657.122 349.669 645.349 351.685" style="opacity: 0.3; transform-origin: 649.738px 327.698px;" class="animable"></polygon></g></g><g id="eliebq0izqcj" class="animable" style="transform-origin: 679.799px 331.917px;"><polygon points="687.752 308.712 681.655 355.407 671.847 354.481 675.811 308.426 687.752 308.712" style="fill: rgb(255, 132, 49); transform-origin: 679.799px 331.917px;" id="ely3vdyza848j" class="animable"></polygon><g id="elwx5iw5bkvtj"><polygon points="687.752 308.712 681.655 355.407 671.847 354.481 675.811 308.426 687.752 308.712" style="opacity: 0.3; transform-origin: 679.799px 331.917px;" class="animable"></polygon></g></g><g id="elinr3n47f4ph" class="animable" style="transform-origin: 645.148px 360.37px;"><path d="M617.588,384.226c-.666-2.771-18.008-53.052-18.008-53.052l9.604-3.841,16.22,50.535-7.816,6.358Z" style="fill: rgb(255, 132, 49); transform-origin: 612.492px 355.78px;" id="el7f7ogp8g95o" class="animable"></path><path d="M611.33,358.521c-.081-2.849-5.223-40.621-5.223-40.621l10.189-1.781,5.578,40.251-10.544,2.15Z" style="fill: rgb(253, 173, 109); transform-origin: 613.991px 337.32px;" id="elg8fxg5b2avb" class="animable"></path><path d="M635.604,353.48c-.081-2.849-5.223-40.621-5.223-40.621l10.189-1.781,5.578,40.251-10.544,2.151Z" style="fill: rgb(255, 132, 49); transform-origin: 638.264px 332.279px;" id="elui4v3l93pmc" class="animable"></path><path d="M659.591,356.202c-.081-2.849-6.694-55.623-6.694-55.623l10.189-1.781,5.463,52.792-8.958,4.612Z" style="fill: rgb(255, 132, 49); transform-origin: 660.723px 327.5px;" id="elkdfix97gtwf" class="animable"></path><path d="M672.261,376.882c.562-2.794,5.995-55.703,5.995-55.703l10.329,.558-6.558,52.668-9.766,2.478Z" style="fill: rgb(255, 132, 49); transform-origin: 680.423px 349.031px;" id="elxm2dx2q7li" class="animable"></path><path d="M652.922,355.14c-.081-2.849-2.371-46.603-2.371-46.603l10.189-1.781,2.726,46.234-10.544,2.15Z" style="fill: rgb(253, 173, 109); transform-origin: 657.009px 330.948px;" id="elpgz24i76oac" class="animable"></path><path d="M639.751,361.976c.168-2.845-1.667-40.921-1.667-40.921l10.306-.887,2.053,40.584-10.692,1.225Z" style="fill: rgb(253, 173, 109); transform-origin: 644.263px 341.073px;" id="elpo0jn6pfks" class="animable"></path><path d="M625.109,355.887c-.081-2.849-5.208-55.569-5.208-55.569l11.795,2.125,4.193,50.47-10.78,2.973Z" style="fill: rgb(253, 173, 109); transform-origin: 627.895px 328.102px;" id="el1afvaijeqru" class="animable"></path><path d="M666.784,356.268c.161-2.321-.519-40.844-.519-40.844l10.116-2.048-.603,41.333-8.994,1.559Z" style="fill: rgb(253, 173, 109); transform-origin: 671.323px 334.822px;" id="elivd9aot0tv" class="animable"></path><g id="el8ydlkeiwhlx"><path d="M603.212,344.441c.379-.029,22.526-3.684,22.526-3.684l4.746,9.3,39.563-3.085,4.843-9.289,11.761-.414-1.055,5.443-13.349,10.996s-28.302,.853-28.133,.99c.169,.137-17.808,2.18-17.808,2.18,0,0-5.762-6.125-6.13-5.909-.368,.216-16.52-3.112-16.52-3.112l-.444-3.416Z" style="opacity: 0.3; transform-origin: 644.931px 347.074px;" class="animable"></path></g><polygon points="613.278 421.943 603.212 344.441 622.061 342.985 628.048 351.31 671.913 348.176 675.772 338.835 690.717 337.681 687.125 420.037 613.278 421.943" style="fill: rgb(64, 123, 255); transform-origin: 646.964px 379.812px;" id="el18di7b2oqc4" class="animable"></polygon></g><g id="elf0vs3hnka97"><path d="M608.529,386.683s41.891-23.427,46.783-17.52,34.973-17.608,34.973-17.608l-1.488,30.165s-22.576,17.285-29.489,14.32c-6.913-2.965-4.017-5.863-9.416-3.937s-37.872,20.141-37.915,19.808c-.043-.333-3.447-25.229-3.447-25.229Z" style="fill: rgb(255, 255, 255); opacity: 0.3; transform-origin: 649.407px 381.735px;" class="animable"></path></g></g><g id="el2x8q4mpyzf8" class="animable" style="transform-origin: 483.581px 310.891px;"><ellipse cx="483.581" cy="415.713" rx="32.255" ry="19.586" style="fill: rgb(64, 123, 255); transform-origin: 483.581px 415.713px;" id="elzho2pfthtn" class="animable"></ellipse><g id="el581d0qz01e6"><ellipse cx="483.581" cy="415.713" rx="32.255" ry="19.586" style="fill: rgb(255, 255, 255); opacity: 0.5; transform-origin: 483.581px 415.713px;" class="animable"></ellipse></g><ellipse cx="483.581" cy="407.492" rx="16.253" ry="8.761" style="fill: rgb(64, 123, 255); transform-origin: 483.581px 407.492px;" id="elpaky3u8o6u" class="animable"></ellipse><g id="elhrbjw8c4xkw"><ellipse cx="483.581" cy="407.492" rx="16.253" ry="8.761" style="fill: rgb(255, 255, 255); opacity: 0.8; transform-origin: 483.581px 407.492px;" class="animable"></ellipse></g><path d="M486.304,404.088c31.566-10.277,40.128-125.367,39.716-126.602h-84.88c-.412,1.235,8.151,116.324,39.717,126.602,0,0,.856,.118,3.046,.151,2.124,.032,2.401-.151,2.401-.151Z" style="fill: rgb(64, 123, 255); transform-origin: 483.58px 340.864px;" id="ele28kpvum1m6" class="animable"></path><g id="el4j2e08susfu"><path d="M486.304,404.088c31.566-10.277,40.128-125.367,39.716-126.602h-84.88c-.412,1.235,8.151,116.324,39.717,126.602,0,0,.856,.118,3.046,.151,2.124,.032,2.401-.151,2.401-.151Z" style="fill: rgb(255, 255, 255); opacity: 0.5; transform-origin: 483.58px 340.864px;" class="animable"></path></g><g id="elx7r7097nrvh" class="animable" style="transform-origin: 483.581px 278.723px;"><ellipse cx="483.581" cy="278.723" rx="42.454" ry="12.03" style="fill: rgb(64, 123, 255); transform-origin: 483.581px 278.723px;" id="elfdwmzjd1t2l" class="animable"></ellipse><g id="el41ipmtca0mo"><ellipse cx="483.581" cy="278.723" rx="42.454" ry="12.03" style="fill: rgb(255, 255, 255); opacity: 0.4; transform-origin: 483.581px 278.723px;" class="animable"></ellipse></g></g><path d="M511.909,285.035c8.254-1.879,14.728-8.598,15.638-17.015,.148-1.368,.147-2.749-.03-4.133-.799-6.228-6.197-12.108-12.463-11.703,2.263-5.604,1.358-12.369-2.299-17.181-3.657-4.812-9.933-7.495-15.938-6.815-1.893-5.836-7.657-10.195-13.788-10.426-6.131-.231-12.207,3.681-14.534,9.358-5.349,.597-10.415,3.421-13.735,7.658-3.32,4.237-4.851,9.831-4.151,15.168-6.312,2.508-10.854,8.954-11.092,15.742s3.841,13.536,9.962,16.48c0,0,12.772,5.322,38.93,5.14,10.768-.075,18.33-1.097,23.5-2.274Z" style="fill: rgb(64, 123, 255); transform-origin: 483.581px 252.532px;" id="elhv3juhxpch" class="animable"></path><g id="elmutiafn2e9i"><path d="M449.259,286.544c.042,.801,1.744,87.22,25.744,110.199,0,0-7.575-91.875-6.278-106.548-6.441-.664-12.932-1.907-19.467-3.652Z" style="fill: rgb(255, 255, 255); opacity: 0.2; transform-origin: 462.13px 341.643px;" class="animable"></path></g><g id="el9yse6894ih5"><path d="M519.194,285.765c-.042,.801-1.744,87.22-25.744,110.199,0,0,7.575-91.875,6.278-106.547,6.441-.664,12.932-1.907,19.467-3.652Z" style="fill: rgb(255, 255, 255); opacity: 0.2; transform-origin: 506.322px 340.865px;" class="animable"></path></g><g id="elzrt48we76ie"><path d="M473.434,290.752s.919,108.55,10.146,109.04c9.227,.49,8.725-109.295,8.725-109.295l-18.871,.255Z" style="fill: rgb(255, 255, 255); opacity: 0.2; transform-origin: 482.872px 345.145px;" class="animable"></path></g><g id="elkuv673fxzt"><g style="opacity: 0.2; transform-origin: 471.648px 416.649px;" class="animable"><path d="M465.944,402.554c.172,.449-2.147,8.977-.314,11.626s4.945,4.251,8.138,4.675c2.695,.358,5.455-.052,8.138,.384,2.683,.436,5.489,2.078,5.999,4.749,.525,2.749-1.703,5.43-4.339,6.371-2.636,.941-5.541,.566-8.302,.104-3.725-.623-7.471-1.397-10.878-3.028-3.406-1.631-6.481-4.209-8.05-7.644s-1.398-7.779,.983-10.71c-.145-.81,8.062-7.994,8.626-6.527Z" style="fill: rgb(255, 255, 255); transform-origin: 471.648px 416.649px;" id="elgrc9xyok9r" class="animable"></path></g></g><g id="el60gbr500946"><g style="opacity: 0.2; transform-origin: 483.581px 252.532px;" class="animable"><path d="M511.909,285.035c8.254-1.879,14.728-8.598,15.638-17.015,.148-1.368,.147-2.749-.03-4.133-.799-6.228-6.197-12.108-12.463-11.703,2.263-5.604,1.358-12.369-2.299-17.181-3.657-4.812-9.933-7.495-15.938-6.815-1.893-5.836-7.657-10.195-13.788-10.426-6.131-.231-12.207,3.681-14.534,9.358-5.349,.597-10.415,3.421-13.735,7.658-3.32,4.237-4.851,9.831-4.151,15.168-6.312,2.508-10.854,8.954-11.092,15.742s3.841,13.536,9.962,16.48c0,0,12.772,5.322,38.93,5.14,10.768-.075,18.33-1.097,23.5-2.274Z" style="fill: rgb(255, 255, 255); transform-origin: 483.581px 252.532px;" id="elasc09277" class="animable"></path></g></g><g id="elt5esop7806"><g style="opacity: 0.3; transform-origin: 476.495px 256.919px;" class="animable"><path d="M476.442,258.116c-8.289-.519-17.41-2.04-24.739-5.583,6.764,5.478,14.147,7.651,23.227,8.402s18.724,.714,26.357-3.575c-8.252,.696-16.556,1.275-24.845,.755Z" id="el6073r594cox" class="animable" style="transform-origin: 476.495px 256.919px;"></path></g></g><g id="elgj2ixz75api" class="animable" style="transform-origin: 477.868px 210.086px;"><path d="M476.022,208.694c-.068,.268-2.307-2.293-7.513-.656-5.206,1.638-8.138,7.945-5.356,15.313,3.027,8.017,9.357,11.811,18.832,9.813,9.475-1.998,10.793-9.17,11.24-10.874,1.189-4.529,.132-14.16-5.937-16.496-6.678-2.57-10.75,.85-11.267,2.899Z" style="fill: rgb(64, 123, 255); transform-origin: 477.868px 219.282px;" id="elkxqibeyq1lp" class="animable"></path><g id="el4w4j015b3fn" class="animable" style="transform-origin: 477.868px 219.282px;"><g id="eloiznb6tarse"><path d="M476.022,208.694c-.068,.268-2.307-2.293-7.513-.656-5.206,1.638-8.138,7.945-5.356,15.313,3.027,8.017,9.357,11.811,18.832,9.813,9.475-1.998,10.793-9.17,11.24-10.874,1.189-4.529,.132-14.16-5.937-16.496-6.678-2.57-10.75,.85-11.267,2.899Z" style="opacity: 0.2; transform-origin: 477.868px 219.282px;" class="animable"></path></g><g id="elrj8i6hkg58"><g style="opacity: 0.3; transform-origin: 475.603px 208.994px;" class="animable"><path d="M479.812,207.98c-.671,1.224-1.739,2.275-3.104,2.567-.92,.196-1.875,.09-2.803-.063-.885-.146-1.763-.334-2.631-.564,0,0,3.266-.596,4.48-.582,1.214,.014,2.002-1.555,2.888-1.836s1.577-.265,1.17,.479Z" id="el12edeu8ufl6" class="animable" style="transform-origin: 475.603px 208.994px;"></path></g></g><g id="eln9ynclkxzuf"><g style="opacity: 0.1; transform-origin: 468.889px 218.185px;" class="animable"><path d="M467.361,211.157c-2.272,1.016-3.437,2.758-3.8,5.221-.363,2.463,.362,6.028,2.798,8.836-.519-2.507-.039-7.07,1.474-9.135,1.513-2.065,3.925-3.447,6.472-3.707-4.06-.441-4.907-1.05-6.944-1.215Z" style="fill: rgb(255, 255, 255); transform-origin: 468.889px 218.185px;" id="elrpqd3e1597" class="animable"></path></g></g><g id="elym294f5ogk8"><g style="opacity: 0.1; transform-origin: 483.815px 208.617px;" class="animable"><path d="M486.328,207.653c-1.107-1.27-3.15-1.596-4.597-.733l-.066,.32c-.269,.83-.538,1.66-.806,2.489-.062,.191-.124,.398-.062,.589,.114,.347,.553,.444,.918,.464,1.339,.071,2.691-.14,3.945-.616,.434-.165,.89-.391,1.093-.809,.272-.558-.016-1.236-.424-1.704Z" style="fill: rgb(255, 255, 255); transform-origin: 483.815px 208.617px;" id="eloyetxp5hau" class="animable"></path></g></g><g id="ellj64v1idrp"><path d="M469.479,212.391c-.168-.237-.413-.413-.682-.52-1.885-.753-2.584,.604-3.526,1.992-.88,1.297-1.291,3.905-.689,4.157,.602,.253,2.037-2.666,4.358-4.318,.763-.544,.83-.901,.54-1.31Z" style="fill: rgb(255, 255, 255); opacity: 0.1; transform-origin: 466.968px 214.846px;" class="animable"></path></g></g><path d="M476.995,210.319c-.131,0-.258-.069-.327-.191-.072-.128-7.088-12.939,3.283-23.533,.145-.148,.382-.15,.53-.006,.147,.145,.15,.382,.005,.53-9.981,10.197-3.233,22.518-3.164,22.642,.102,.18,.037,.409-.144,.51-.058,.033-.121,.048-.184,.048Z" style="fill: rgb(38, 50, 56); transform-origin: 477.437px 198.401px;" id="el9is2j9jj0sp" class="animable"></path></g><g id="elcg4eqgn44gs"><path d="M496.692,229.181c.078-.411-5.452,7.54-19.488,8.12,0,0,17.4,2.9,19.488-8.12Z" style="opacity: 0.3; transform-origin: 486.948px 233.406px;" class="animable"></path></g></g><g id="elwc1tq3q7gt" class="animable" style="transform-origin: 613.662px 227.876px;"><g id="elzeizv9kpa8" class="animable" style="transform-origin: 642.662px 277.121px;"><g id="elk5p93bbhsne"><path d="M641.997,252.769h1.328c3.21,0,5.817,2.606,5.817,5.817v37.07c0,3.21-2.606,5.817-5.817,5.817h-1.328c-3.21,0-5.816-2.606-5.816-5.816v-37.07c0-3.21,2.606-5.817,5.817-5.817Z" style="fill: rgb(185, 121, 100); transform-origin: 642.662px 277.121px; transform: rotate(-25.024deg);" class="animable"></path></g><g id="el843ymjf2ihp"><rect x="631.017" y="263.16" width="12.961" height="5.796" style="opacity: 0.2; transform-origin: 637.498px 266.058px; transform: rotate(-25.023deg);" class="animable"></rect></g></g><g id="elw8kd461gevm"><path d="M610.666,161.138h5.993c14.486,0,26.248,11.761,26.248,26.248v75.943c0,3.051-2.477,5.528-5.528,5.528h-47.433c-3.051,0-5.528-2.477-5.528-5.528v-75.943c0-14.487,11.761-26.248,26.248-26.248Z" style="fill: rgb(64, 123, 255); transform-origin: 613.662px 214.997px; transform: rotate(-25.023deg);" class="animable"></path></g><g id="el2pk0yo8i93v"><rect x="596.628" y="183.966" width="12.568" height="76.358" rx="5.64" ry="5.64" style="opacity: 0.2; transform-origin: 602.912px 222.145px; transform: rotate(-25.027deg);" class="animable"></rect></g><g id="elm2bprrnubed"><rect x="618.995" y="173.525" width="12.568" height="76.358" rx="5.64" ry="5.64" style="opacity: 0.2; transform-origin: 625.279px 211.704px; transform: rotate(-25.025deg);" class="animable"></rect></g><g id="elc4sruodfl6"><path d="M578.573,199.227s-9.071-19.051,12.353-31.149c0,0,11.427-5.334,11.198,.302-.229,5.635-13.702,6.587-18.616,14.028-4.914,7.442-1.567,15.247-4.935,16.819Z" style="fill: rgb(255, 255, 255); opacity: 0.2; transform-origin: 589.397px 182.511px;" class="animable"></path></g><path d="M585.088,198.994c6,12.854,12.001,25.709,18.001,38.563,.041,.087,.17,.011,.13-.076-6.001-12.854-12.001-25.709-18.001-38.563-.041-.087-.17-.011-.13,.076h0Z" style="fill: rgb(38, 50, 56); transform-origin: 594.154px 218.238px;" id="elsjf07d79r7n" class="animable"></path><path d="M607.392,188.583c6,12.854,12.001,25.709,18.001,38.563,.041,.087,.17,.011,.13-.076-6-12.854-12.001-25.709-18.001-38.563-.041-.087-.17-.011-.13,.076h0Z" style="fill: rgb(38, 50, 56); transform-origin: 616.458px 207.826px;" id="elhj0x5veflgh" class="animable"></path></g><g id="eldxvtl1uvd2i" class="animable" style="transform-origin: 444.016px 380.747px;"><path d="M416.309,390.233s-7.429,21.347,28.912,21.694l-.067-17.685-28.845-4.009Z" style="fill: rgb(185, 121, 100); transform-origin: 430.452px 401.08px;" id="el7pjbwz36q9g" class="animable"></path><path d="M473.227,386.625c.023,6.155-13.353,11.195-29.877,11.258-16.524,.063-29.938-4.876-29.962-11.03-.023-6.155,13.353-11.195,29.877-11.258,16.524-.063,29.938,4.876,29.961,11.03Z" style="fill: rgb(185, 121, 100); transform-origin: 443.307px 386.739px;" id="el94rszq1iwpi" class="animable"></path><path d="M470.692,390.026s7.591,21.29-28.746,21.913l-.067-17.685,28.813-4.228Z" style="fill: rgb(185, 121, 100); transform-origin: 456.615px 400.982px;" id="elsc0ciyg5chn" class="animable"></path><path d="M420.67,390.217s-5.059-1.396-7.81-6.451c-1.465-2.693-1.894-5.867-.979-8.792,.578-1.848,1.739-3.787,4.062-4.588,0,0-5.017-7.936,4.6-13.656,0,0-2.33-9.273,6.364-14.231,0,0-3.647-12.677,11.111-16.901,0,0-.224-9.091,13.593-11.985,0,0-3.198,5.695,.035,9.282,3.234,3.587,10.068,7.538,6.502,16.265,0,0,7.306,5.757,5.249,12.584,0,0,7.241,3.224,6.769,16.202,0,0,8.186,4.285,6.136,13.196-2.05,8.911-8.684,7.799-8.684,7.799,0,0-18.681,12.07-46.949,1.275Z" style="fill: rgb(64, 123, 255); transform-origin: 444.016px 354.159px;" id="ela8h15pjnk36" class="animable"></path><g id="elvkr8pecznhi"><g style="opacity: 0.2; transform-origin: 442.817px 345.769px;" class="animable"><path d="M451.61,313.613c-13.817,2.894-13.593,11.985-13.593,11.985-14.759,4.224-11.111,16.901-11.111,16.901-8.694,4.958-6.364,14.231-6.364,14.231-2.651,1.576-4.186,3.321-5.024,5.022,.573,1.523,1.775,2.812,3.358,3.227,3.077,.807,6.532-1.957,6.422-5.136,3.486-.382,5.725,3.447,7.386,6.536,1.661,3.089,5.177,6.391,8.165,4.555,1.045-.643,1.698-1.804,2.762-2.416,2.938-1.691,6.159,1.635,7.942,4.517,1.783,2.883,5.086,6.164,7.973,4.388,3.654-2.247,.472-9.004,3.756-11.764,1.813-1.524,4.378-.838,6.835-.707-.641-10.472-6.721-13.209-6.721-13.209,2.058-6.827-5.249-12.584-5.249-12.584,3.566-8.727-3.268-12.679-6.502-16.265-3.234-3.587-.035-9.281-.035-9.281Z" style="fill: rgb(255, 255, 255); transform-origin: 442.817px 345.769px;" id="el5c9ajfpc4wc" class="animable"></path></g></g><g id="el9u1q80dn0jw"><path d="M437.567,326.118c4.169,6.617,11.208,11.202,18.923,12.392,.519,.056,1.04,.124,1.564,.201-.902,.088-2.257,.047-3.178-.009-7.433-.744-14.436-5.632-17.309-12.584h0Z" style="fill: rgb(255, 255, 255); opacity: 0.3; transform-origin: 447.81px 332.44px;" class="animable"></path></g><g id="el7oenweh40gj"><path d="M426.834,342.641c9.484,6.3,20.856,9.624,32.237,9.322,1.428-.033,3.475-.182,4.886-.309-.801,.167-1.605,.326-2.413,.472-12.182,1.906-25.244-1.546-34.71-9.485h0Z" style="fill: rgb(255, 255, 255); opacity: 0.3; transform-origin: 445.396px 347.64px;" class="animable"></path></g><path d="M462.151,440.874c.014,3.83-8.237,6.967-18.43,7.006-10.193,.039-18.468-3.035-18.483-6.865-.014-3.83,8.237-6.967,18.43-7.006,10.193-.039,18.469,3.035,18.483,6.865Z" style="fill: rgb(185, 121, 100); transform-origin: 443.695px 440.945px;" id="el5ke2dsjkjfk" class="animable"></path><polygon points="420.717 402.814 425.237 441.014 443.857 440.944 443.694 397.881 420.717 402.814" style="fill: rgb(185, 121, 100); transform-origin: 432.287px 419.448px;" id="elc3vustvushu" class="animable"></polygon><polygon points="466.38 402.64 462.151 440.874 443.53 440.945 443.367 397.883 466.38 402.64" style="fill: rgb(185, 121, 100); transform-origin: 454.874px 419.414px;" id="eldet5dfpcvdu" class="animable"></polygon><g id="elbu4sd3c5lvj"><path d="M418.007,395.883c-.049,.809,.305,7.119,7.257,10.661,6.952,3.541,14.182,4.284,13.847,3.56-.335-.724-1.241-7.865-1.241-7.865,0,0-9.971-1.315-14.917-3.835l-4.946-2.52Z" style="fill: rgb(255, 255, 255); opacity: 0.2; transform-origin: 428.563px 403.119px;" class="animable"></path></g><g id="elkd6l1agi4sc"><path d="M447.857,447.402c-.058,0-.116-.01-.174-.031-8.51-3.146-17.04-9.244-22.819-16.311-.175-.214-.144-.528,.07-.703,.213-.175,.528-.144,.703,.07,5.672,6.935,14.043,12.918,22.394,16.006,.259,.096,.391,.383,.295,.643-.074,.201-.266,.326-.469,.326Z" style="fill: rgb(162, 78, 63); opacity: 0.2; transform-origin: 436.554px 438.823px;" class="animable"></path></g><g id="elx78gqogr89m"><path d="M460.636,442.741c-.058,0-.116-.01-.174-.031-8.511-3.146-31.95-21.015-37.617-27.943-.175-.214-.144-.528,.07-.703,.214-.176,.528-.145,.703,.07,5.608,6.856,28.782,24.53,37.191,27.639,.259,.096,.391,.383,.295,.643-.074,.201-.266,.326-.469,.326Z" style="fill: rgb(162, 78, 63); opacity: 0.2; transform-origin: 441.933px 428.346px;" class="animable"></path></g><g id="ellowq99bixim"><path d="M462.738,427.652c-.058,0-.116-.01-.174-.031-5.013-1.853-14.486-8.398-21.681-13.906-.22-.168-.261-.482-.094-.701,.169-.22,.481-.261,.701-.094,9.105,6.972,17.313,12.245,21.421,13.764,.259,.096,.391,.383,.295,.643-.074,.201-.266,.326-.469,.326Z" style="fill: rgb(162, 78, 63); opacity: 0.2; transform-origin: 451.962px 420.235px;" class="animable"></path></g><g id="elpbnqclk1ol"><path d="M464.583,413.78c-.058,0-.116-.01-.173-.031-1.463-.54-3.411-1.527-5.791-2.934-.237-.141-.316-.447-.176-.686,.142-.237,.447-.314,.686-.176,2.327,1.376,4.221,2.338,5.627,2.857,.26,.096,.392,.383,.296,.642-.074,.202-.266,.327-.469,.327Z" style="fill: rgb(162, 78, 63); opacity: 0.2; transform-origin: 461.729px 411.832px;" class="animable"></path></g><g id="elprwyha59vle"><path d="M424.782,429.478c-.084,0-.168-.021-.246-.064-.24-.136-.325-.44-.189-.682,4.521-8.011,10.513-14.479,13.438-16.873,.214-.176,.528-.145,.703,.07,.175,.214,.144,.528-.07,.703-2.866,2.346-8.746,8.7-13.199,16.592-.092,.162-.262,.254-.436,.254Z" style="fill: rgb(162, 78, 63); opacity: 0.2; transform-origin: 431.442px 420.611px;" class="animable"></path></g><g id="elg8h719n4hwo"><path d="M426.389,442.474c-.084,0-.168-.021-.246-.064-.24-.136-.325-.44-.189-.682,4.346-7.7,23.586-26.882,31.673-31.576,.236-.139,.544-.06,.684,.182,.139,.239,.058,.545-.182,.684-7.994,4.641-27.011,23.596-31.304,31.203-.092,.162-.262,.254-.436,.254Z" style="fill: rgb(162, 78, 63); opacity: 0.2; transform-origin: 442.134px 426.279px;" class="animable"></path></g><g id="elbf624s67ut5"><path d="M443.66,442.906c-.121,0-.243-.044-.339-.133-.203-.188-.216-.504-.028-.706,6.148-6.658,14.365-14.728,18.984-17.409,.237-.138,.544-.059,.684,.182,.139,.239,.058,.545-.182,.684-3.784,2.196-10.969,8.796-18.752,17.222-.099,.107-.232,.161-.367,.161Z" style="fill: rgb(162, 78, 63); opacity: 0.2; transform-origin: 453.094px 433.749px;" class="animable"></path></g><g id="elz9rv8fck6pi"><g style="opacity: 0.2; transform-origin: 430.048px 352.738px;" class="animable"><path d="M425.911,347.394c-2.05,2.365-2.24,6.144-.437,8.702,1.803,2.558,5.426,3.65,8.342,2.515,.719-.28,1.425-.712,1.783-1.396,.563-1.075,.108-2.385-.412-3.481-.864-1.826-1.916-3.599-3.392-4.978-1.476-1.379-4.116-3.651-5.885-1.362Z" style="fill: rgb(255, 255, 255); transform-origin: 430.048px 352.738px;" id="elynr0cfakhv" class="animable"></path></g></g><g id="elahabjmyl20n"><g style="opacity: 0.2; transform-origin: 436.049px 338.293px;" class="animable"><path d="M431.912,332.949c-2.05,2.364-2.239,6.144-.437,8.702,1.803,2.558,5.426,3.65,8.342,2.515,.719-.28,1.425-.713,1.783-1.396,.563-1.075,.108-2.385-.412-3.481-.864-1.826-1.916-3.599-3.392-4.978-1.476-1.379-4.116-3.651-5.885-1.362Z" style="fill: rgb(255, 255, 255); transform-origin: 436.049px 338.293px;" id="elayey46oigi7" class="animable"></path></g></g><g id="elyfmg6loum7s"><g style="opacity: 0.2; transform-origin: 446.22px 327.354px;" class="animable"><path d="M442.901,323.066c-1.645,1.897-1.797,4.929-.35,6.982,1.446,2.052,4.353,2.929,6.693,2.018,.577-.225,1.143-.572,1.43-1.12,.452-.862,.086-1.913-.33-2.793-.693-1.465-1.537-2.888-2.721-3.994-1.184-1.106-3.302-2.929-4.721-1.093Z" style="fill: rgb(255, 255, 255); transform-origin: 446.22px 327.354px;" id="elfqk44f7u0zt" class="animable"></path></g></g><g id="elzma181dy1fb"><path d="M439.619,357.776c.522,.134,.723,1.105,.45,2.169s-.918,1.817-1.44,1.683-.723-1.105-.45-2.169,.918-1.818,1.44-1.683Z" style="fill: rgb(255, 255, 255); opacity: 0.2; transform-origin: 439.124px 359.702px;" class="animable"></path></g><path d="M443.144,400.455c-10.352,0-20.333-3.023-26.963-8.122-.219-.168-.26-.482-.092-.701,.169-.219,.482-.259,.701-.092,11.193,8.607,37.092,12.391,53.841-1.006,.218-.17,.532-.137,.703,.078,.172,.216,.138,.53-.078,.703-7.966,6.371-18.209,9.14-28.112,9.14Z" style="fill: rgb(162, 78, 63); transform-origin: 443.715px 395.44px;" id="el4xe38ixbj33" class="animable"></path><path d="M445.454,413.334c-9.289,0-18.52-2.886-24.565-6.479-.237-.141-.315-.447-.174-.686,.143-.238,.449-.315,.686-.174,10.684,6.348,31.527,10.468,44.413-.256,.211-.174,.526-.146,.704,.065,.176,.212,.147,.527-.065,.704-5.93,4.934-13.483,6.824-20.998,6.824Z" style="fill: rgb(162, 78, 63); transform-origin: 443.639px 409.48px;" id="elp8ygj8hrwk" class="animable"></path><g id="elx29dqfmjgg8"><path d="M427.736,441.657s5.187,4.531,13.482,3.466l-1.346-28.639s-5.658-.024-15.775-5.403l3.639,30.575Z" style="fill: rgb(255, 255, 255); opacity: 0.2; transform-origin: 432.657px 428.183px;" class="animable"></path></g></g><g id="elndv0ddvkyh9" class="animable" style="transform-origin: 559.944px 314.116px;"><g id="elags1yd77kyb" class="animable" style="transform-origin: 559.943px 344.516px;"><polygon points="590.014 407.253 532.526 407.253 515.722 281.778 604.165 281.778 590.014 407.253" style="fill: rgb(64, 123, 255); transform-origin: 559.943px 344.516px;" id="elc6yozozprns" class="animable"></polygon></g><g id="elswzblfmcwa" class="animable" style="transform-origin: 561.268px 407.253px;"><ellipse cx="561.268" cy="407.253" rx="28.741" ry="8.279" style="fill: rgb(64, 123, 255); transform-origin: 561.268px 407.253px;" id="el9drtwhphj9k" class="animable"></ellipse></g><path d="M609.103,281.778c0,7.451-22.009,13.492-49.159,13.492s-49.159-6.041-49.159-13.492c0-1.591,.243-6.629,.243-6.629,6.787-5.221,27.563-6.863,48.916-6.863,20.362,0,41.614,2.593,49.077,7.436,0,0,.082,4.193,.082,6.056Z" style="fill: rgb(38, 50, 56); transform-origin: 559.944px 281.778px;" id="elasvcrylf61a" class="animable"></path><ellipse cx="559.944" cy="276.496" rx="49.159" ry="13.492" style="fill: rgb(38, 50, 56); transform-origin: 559.944px 276.496px;" id="elnwpjg9o11g" class="animable"></ellipse><g id="elmn4qr9jigeh"><g style="opacity: 0.3; transform-origin: 559.944px 278.889px;" class="animable"><path d="M559.944,280.552c-13.273,0-24.313-2.617-26.663-6.073-.303,.446-.469,.904-.469,1.374,0,4.113,12.147,7.447,27.132,7.447s27.132-3.334,27.132-7.447c0-.47-.166-.928-.469-1.374-2.35,3.456-13.39,6.073-26.663,6.073Z" style="fill: rgb(255, 255, 255); transform-origin: 559.944px 278.889px;" id="el0ei47gxe1vy" class="animable"></path></g></g><g id="elq72sjk2v9x9" class="animable" style="transform-origin: 559.944px 244.448px;"><ellipse cx="559.944" cy="274.48" rx="6.251" ry="1.716" style="fill: rgb(64, 123, 255); transform-origin: 559.944px 274.48px;" id="elri8mcv1ujtr" class="animable"></ellipse><path d="M566.195,214.416c0,.948-2.799,1.716-6.251,1.716s-6.251-.768-6.251-1.716,2.799-1.716,6.251-1.716,6.251,.768,6.251,1.716Z" style="fill: rgb(64, 123, 255); transform-origin: 559.944px 214.416px;" id="elahgi6jqgue" class="animable"></path><rect x="553.693" y="214.338" width="12.502" height="60.142" style="fill: rgb(64, 123, 255); transform-origin: 559.944px 244.409px;" id="elh6gklzyz7mq" class="animable"></rect><g id="eld7cxbx7eanq"><g style="opacity: 0.2; transform-origin: 559.944px 214.89px;" class="animable"><path d="M565.389,214.889c0,.825-2.438,1.495-5.445,1.495s-5.445-.669-5.445-1.495,2.438-1.494,5.445-1.494,5.445,.669,5.445,1.494Z" id="el8jfclfjrs0e" class="animable" style="transform-origin: 559.944px 214.89px;"></path></g></g></g><path d="M523.141,337.151s48.514,7.521,77.668-25.586l-5.452,54.124s-20.014,27.563-66.36,15.186l-5.856-43.724Z" style="fill: rgb(64, 123, 255); transform-origin: 561.975px 347.818px;" id="elll8opk9ipvj" class="animable"></path><ellipse cx="559.944" cy="276.496" rx="49.159" ry="13.492" style="fill: rgb(255, 255, 255); transform-origin: 559.944px 276.496px;" id="el6fa2kp287hl" class="animable"></ellipse></g><g id="eljlwsp6sq66" class="animable" style="transform-origin: 570.465px 426.91px;"><path d="M641.328,394.346c-2.489-.938-5.047,1.594-7.662,1.349-1.27-.119-2.412-.883-3.62-1.342-2.912-1.106-6.328-.305-8.609,2.02-.673,.686-1.269,1.506-2.084,1.957-2.589,1.435-6.2-1.373-8.389,.748-.476,.461-.797,1.102-1.286,1.543-1.968,1.776-4.769-.636-7.287-.546-3.235,.115-5.983,4.435-9.022,3.176-1.107-.459-1.886-1.58-2.893-2.273-2.561-1.762-5.874-.423-8.511,1.19-2.636,1.613-5.489,3.549-8.423,2.847-1.25-.299-2.453-1.076-3.721-.899-1.283,.178-2.35,1.308-3.636,1.456-2.727,.314-4.592-3.752-7.333-3.709-.971,.015-1.869,.563-2.821,.781-3.348,.766-6.89-2.568-10.03-1.049-1.077,.521-1.965,1.579-3.127,1.758-2.073,.318-3.548-2.202-5.474-3.124-2.379-1.138-5.372,.244-7.581-1.27-1.957-1.341-2.722-4.622-4.961-5.158-2.576-.617-4.54,2.939-7.157,3.269-2.997,.377-6.039-3.538-8.606-1.752-.807,.561-1.278,1.564-1.959,2.308-1.127,1.229-2.734,1.663-4.237,2.16-1.503,.498-3.093,1.207-3.903,2.721-.811,1.513-.262,3.984,1.286,4.246l57.864,21.506,78.949-21.155c2.307-1.33,4.744-2.796,6.013-5.347s.676-6.485-1.781-7.411Z" style="fill: rgb(64, 123, 255); transform-origin: 571.19px 410.994px;" id="ellmmmzr5s8gr" class="animable"></path><g id="elryarp9urahk"><g style="opacity: 0.3; transform-origin: 571.19px 410.994px;" class="animable"><path d="M641.328,394.346c-2.489-.938-5.047,1.594-7.662,1.349-1.27-.119-2.412-.883-3.62-1.342-2.912-1.106-6.328-.305-8.609,2.02-.673,.686-1.269,1.506-2.084,1.957-2.589,1.435-6.2-1.373-8.389,.748-.476,.461-.797,1.102-1.286,1.543-1.968,1.776-4.769-.636-7.287-.546-3.235,.115-5.983,4.435-9.022,3.176-1.107-.459-1.886-1.58-2.893-2.273-2.561-1.762-5.874-.423-8.511,1.19-2.636,1.613-5.489,3.549-8.423,2.847-1.25-.299-2.453-1.076-3.721-.899-1.283,.178-2.35,1.308-3.636,1.456-2.727,.314-4.592-3.752-7.333-3.709-.971,.015-1.869,.563-2.821,.781-3.348,.766-6.89-2.568-10.03-1.049-1.077,.521-1.965,1.579-3.127,1.758-2.073,.318-3.548-2.202-5.474-3.124-2.379-1.138-5.372,.244-7.581-1.27-1.957-1.341-2.722-4.622-4.961-5.158-2.576-.617-4.54,2.939-7.157,3.269-2.997,.377-6.039-3.538-8.606-1.752-.807,.561-1.278,1.564-1.959,2.308-1.127,1.229-2.734,1.663-4.237,2.16-1.503,.498-3.093,1.207-3.903,2.721-.811,1.513-.262,3.984,1.286,4.246l57.864,21.506,78.949-21.155c2.307-1.33,4.744-2.796,6.013-5.347s.676-6.485-1.781-7.411Z" id="eli3lmmz3gvvh" class="animable" style="transform-origin: 571.19px 410.994px;"></path></g></g><path d="M506.711,426.37c-.555-.252-14.352-1.351-12.956-14.631,1.395-13.28,16.345-8.553,23.919-7.203,7.574,1.351,30.098,8.778,55.811,6.753,25.713-2.026,52.821-7.454,59.2-8.679,6.378-1.225,13.554-.1,14.551,10.929,.997,11.029-17.541,16.431-17.541,16.431,0,0-70.362,20.258-122.985-3.601Z" style="fill: rgb(38, 50, 56); transform-origin: 570.465px 420.106px;" id="elxe92hz8fwt" class="animable"></path><g id="elkf4zkjfckfk"><g style="opacity: 0.3; transform-origin: 568.996px 422.245px;" class="animable"><path d="M612.79,409.15c-13.16,4.642-23.83,6.507-31.109,7.512-3.029,.418-9.55,1.046-12.598,.882-16.047-.86-24.857-.897-38.007-4.815-5.015-1.494-10.009-3.419-15.194-3.572-5.185-.153-10.763,1.824-13.723,6.634-1.605,2.608-2.217,5.426-1.995,8.515,1.403,.782,3.279,1.287,3.439,1.36,52.622,23.859,122.694,3.19,122.694,3.19,0,0,6.302-1.841,11.36-5.56,.066-.471,.125-.945,.174-1.424,.637-6.284-6.26-19.346-25.039-12.722Z" id="elup4epvazb7g" class="animable" style="transform-origin: 568.996px 422.245px;"></path></g></g><g id="elw8i9a603pc7" class="animable" style="transform-origin: 569.021px 408.429px;"><path d="M515.939,408.254c3.286-1.812,7.171-2.029,10.644-.801,3.761,1.33,6.584,4.748,10.309,6.228,3.779,1.502,7.787,.462,11.443-.962,3.391-1.321,6.858-3.099,10.463-2.545,3.299,.507,6.689,2.635,9.899,4.052,3.544,1.565,7.42,2.365,11.114,.936,1.83-.708,3.517-1.774,5.216-2.8,1.435-.866,2.942-1.759,4.581-1.937,1.867-.204,3.693,.411,5.459,1.019,1.971,.678,3.913,1.403,5.962,1.718,4.336,.667,8.22-1.119,12.059-3.188,1.721-.928,3.17-1.771,4.911-2.407,.756-.276,1.801-.565,2.249-.615,.468-.053,.942-.065,1.412-.041,.544,.028,.497,.035,1.041,.172,1.34,.338,2.753-.459,3.129-2.006,.351-1.442-.43-3.194-1.777-3.534-3.848-.971-7.419,.289-10.911,2.071-2.899,1.479-5.957,3.51-8.852,3.912-3.949,.549-7.612-1.926-11.431-2.611-2.139-.384-4.282-.339-6.355,.43-1.885,.7-3.617,1.807-5.359,2.857-1.454,.876-3.195,1.817-4.681,1.954-1.755,.162-3.191-.205-4.924-.857-3.443-1.295-6.628-3.414-10.202-4.386-4.075-1.109-7.951-.263-11.84,1.264-1.768,.694-3.52,1.457-5.334,1.989-1.522,.446-3.148,.729-4.614,.387-2.107-.491-3.865-1.913-5.629-3.23-1.98-1.48-4.024-2.771-6.32-3.523-4.732-1.549-9.827-.934-14.23,1.494-1.234,.68-1.569,2.663-.913,3.93,.737,1.423,2.241,1.714,3.481,1.031h0Z" style="fill: rgb(64, 123, 255); transform-origin: 569.021px 408.429px;" id="elwjhnki6ynia" class="animable"></path><g id="el6z8ohj022r8"><g style="opacity: 0.3; transform-origin: 569.021px 408.429px;" class="animable"><path d="M515.939,408.254c3.286-1.812,7.171-2.029,10.644-.801,3.761,1.33,6.584,4.748,10.309,6.228,3.779,1.502,7.787,.462,11.443-.962,3.391-1.321,6.858-3.099,10.463-2.545,3.299,.507,6.689,2.635,9.899,4.052,3.544,1.565,7.42,2.365,11.114,.936,1.83-.708,3.517-1.774,5.216-2.8,1.435-.866,2.942-1.759,4.581-1.937,1.867-.204,3.693,.411,5.459,1.019,1.971,.678,3.913,1.403,5.962,1.718,4.336,.667,8.22-1.119,12.059-3.188,1.721-.928,3.17-1.771,4.911-2.407,.756-.276,1.801-.565,2.249-.615,.468-.053,.942-.065,1.412-.041,.544,.028,.497,.035,1.041,.172,1.34,.338,2.753-.459,3.129-2.006,.351-1.442-.43-3.194-1.777-3.534-3.848-.971-7.419,.289-10.911,2.071-2.899,1.479-5.957,3.51-8.852,3.912-3.949,.549-7.612-1.926-11.431-2.611-2.139-.384-4.282-.339-6.355,.43-1.885,.7-3.617,1.807-5.359,2.857-1.454,.876-3.195,1.817-4.681,1.954-1.755,.162-3.191-.205-4.924-.857-3.443-1.295-6.628-3.414-10.202-4.386-4.075-1.109-7.951-.263-11.84,1.264-1.768,.694-3.52,1.457-5.334,1.989-1.522,.446-3.148,.729-4.614,.387-2.107-.491-3.865-1.913-5.629-3.23-1.98-1.48-4.024-2.771-6.32-3.523-4.732-1.549-9.827-.934-14.23,1.494-1.234,.68-1.569,2.663-.913,3.93,.737,1.423,2.241,1.714,3.481,1.031h0Z" style="fill: rgb(255, 255, 255); transform-origin: 569.021px 408.429px;" id="elg8shp1n93t" class="animable"></path></g></g></g><path d="M615.535,412.82c-13.16,4.642-23.83,6.507-31.109,7.512-3.029,.418-9.55,1.046-12.598,.882-16.047-.86-24.857-.897-38.007-4.815-5.015-1.494-10.009-3.419-15.194-3.571-5.185-.153-10.763,1.824-13.723,6.634-4.372,7.105-1.089,17.595,5.076,22.732,0,0,13.585,17.774,56.436,17.895,28.703,.082,46.702-7.162,46.702-7.162,22.074-9.301,26.444-17.388,27.458-27.386,.637-6.284-6.26-19.346-25.039-12.722Z" style="fill: rgb(64, 123, 255); transform-origin: 571.759px 435.541px;" id="elda9jzz3doxd" class="animable"></path><g id="elvfl89l2ixv"><g style="opacity: 0.3; transform-origin: 571.102px 443.438px;" class="animable"><path d="M639.228,431.996c1.049-.843-9.702,10.641,0,0-2.509,7.221-8.972,13.711-26.112,20.933,0,0-17.999,7.243-46.702,7.162-42.851-.122-56.436-17.895-56.436-17.895-4.254-3.546-7.133-9.64-7.074-15.412,0,0,1.212,30.547,66.164,29.54,53.673-.833,70.16-24.327,70.16-24.327Z" id="el3qgz2yme0b3" class="animable" style="transform-origin: 571.102px 443.438px;"></path></g></g><g id="el1bsalyd2fpf"><g style="opacity: 0.1; transform-origin: 545.646px 426.427px;" class="animable"><path d="M520.327,415.588c-2.313-.445-4.743-.871-6.86,.37-2.117,1.241-3.737,4.76-2.897,7.976,.666,2.554,2.539,3.968,4.267,5.025,19.664,12.024,41.685,10.196,61.874,3.288,1.062-.363,2.151-.76,3.012-1.708,.86-.947,1.445-2.589,1.145-4.159-.545-2.861-3.188-3.281-5.187-3.121-18.922,1.523-34.807-1.612-55.353-7.672" style="fill: rgb(255, 255, 255); transform-origin: 545.646px 426.427px;" id="eld2h2d7oztys" class="animable"></path></g></g></g></g><g id="freepik--Healthy_Food--inject-38" class="animable" style="transform-origin: 207.66px 322.784px;"><g id="el9xfdockxyat" class="animable" style="transform-origin: 98.0905px 255.6px;"><path d="M121.935,204.486c-8.535-2.112-17.525-.032-25.887,2.686-11.024,3.583-21.684,8.287-31.762,14.015-5.128,2.914-10.228,6.205-13.72,10.958-3.492,4.753-5.103,11.282-2.691,16.664,1.601,3.574,4.704,6.2,7.314,9.12,0,0,7.2,23.764,12.336,36.337l3.776,5.288c-1.074,2.981,1.316,6.315,4.292,7.405,2.976,1.089,6.273,.54,9.379-.087,18.761-3.792,37.029-10.014,54.203-18.462,3.447-1.696,7.039-3.658,8.914-7.011,1.966-3.517,1.618-7.937,.182-11.702-1.436-3.765-3.238-6.922-4.823-10.626-4.093-9.568-9.337-26.121-9.337-26.121,.664-3.84,3.682-6.181,3.819-10.075,.309-8.787-7.459-16.276-15.994-18.388Z" style="fill: rgb(255, 132, 49); transform-origin: 98.0905px 255.6px;" id="el6zs52jkciny" class="animable"></path><g id="eldvitl09kgvw"><g style="opacity: 0.2; transform-origin: 98.0958px 255.601px;" class="animable"><path d="M84.592,304.993c-2.986,.603-5.871,1.07-8.342,.165-2.016-.737-3.831-3.063-3.148-4.956l.341-.945-4.229-5.923c-5.037-12.4-12.121-35.726-12.192-35.961l-.123-.405-.282-.316c-.65-.727-1.329-1.436-2.009-2.146-2.01-2.097-3.909-4.079-4.985-6.481-1.921-4.288-.945-10.076,2.487-14.747,3.291-4.48,8.251-7.659,13.123-10.427,9.952-5.657,20.519-10.319,31.407-13.858,3.384-1.1,6.19-1.872,8.831-2.428,6.14-1.294,11.375-1.366,16.004-.22,7.368,1.823,14.821,8.479,14.54,16.461-.058,1.645-.81,3.001-1.68,4.572-.821,1.481-1.751,3.16-2.112,5.244l-.08,.46,.141,.445c.215,.68,5.319,16.752,9.402,26.296,.685,1.603,1.411,3.106,2.113,4.561,.967,2.002,1.88,3.894,2.681,5.994,1.436,3.767,1.413,7.443-.064,10.085-1.6,2.861-4.873,4.645-8.088,6.227-16.491,8.112-33.977,14.148-51.968,17.938,0,0-1.18,.246-1.769,.365Z" style="fill: rgb(255, 255, 255); transform-origin: 98.0958px 255.601px;" id="elhftz5oau7yd" class="animable"></path></g></g><g id="elwijit5mqj5"><g style="opacity: 0.5; transform-origin: 97.8475px 253.993px;" class="animable"><path d="M118.495,209.732c-7.391-1.829-15.176-.028-22.416,2.326-9.546,3.103-18.776,7.176-27.503,12.136-4.44,2.523-8.856,5.373-11.88,9.489-3.024,4.116-4.418,9.769-2.331,14.43,1.387,3.095,4.073,5.369,6.333,7.897,0,0,6.235,20.577,10.682,31.465l1.059,3.561c.865,3.703,3.35,6.486,5.927,7.43,2.577,.943,5.432,.468,8.121-.076,16.245-3.283,32.064-8.671,46.936-15.986,2.985-1.468,6.095-3.167,7.718-6.071,1.703-3.045,1.401-6.872,.158-10.132-1.243-3.26-2.804-5.994-4.176-9.201-3.545-8.285-8.085-22.619-8.085-22.619,.575-3.325,3.188-5.352,3.307-8.724,.268-7.609-6.459-14.093-13.849-15.923Z" style="fill: rgb(255, 255, 255); transform-origin: 97.8475px 253.993px;" id="eld637cegy8is" class="animable"></path></g></g><g id="elh24z20ufajm"><path d="M78.364,263.613c.603,1.655-.251,3.486-1.906,4.089-1.655,.603-3.486-.251-4.089-1.906-.603-1.655,.251-3.486,1.906-4.088s3.486,.251,4.088,1.906Z" style="fill: rgb(255, 255, 255); opacity: 0.2; transform-origin: 75.3665px 264.705px;" class="animable"></path></g><g id="elecp0px80tm"><path d="M129.798,261.559c.603,1.655-.251,3.486-1.906,4.088-1.656,.603-3.486-.251-4.089-1.906-.603-1.655,.251-3.486,1.906-4.089,1.655-.603,3.486,.251,4.088,1.906Z" style="fill: rgb(255, 255, 255); opacity: 0.2; transform-origin: 126.801px 262.65px;" class="animable"></path></g><g id="el1vgxu5ovdyi"><path d="M78.658,253.635c.349,.957-.145,2.016-1.102,2.365-.957,.349-2.016-.145-2.364-1.102-.349-.957,.145-2.016,1.102-2.365,.958-.349,2.016,.145,2.365,1.102Z" style="fill: rgb(255, 255, 255); opacity: 0.2; transform-origin: 76.925px 254.266px;" class="animable"></path></g></g><g id="el83c5bjw1vd3" class="animable" style="transform-origin: 133.627px 327.333px;"><g id="elxszh97sm2hb" class="animable" style="transform-origin: 133.627px 327.333px;"><ellipse cx="135.316" cy="381.833" rx="24.519" ry="7.765" style="fill: rgb(64, 123, 255); transform-origin: 135.316px 381.833px;" id="elqzvdpd9lwto" class="animable"></ellipse><g id="ellrkuy3askae"><ellipse cx="135.316" cy="381.833" rx="24.519" ry="7.765" style="fill: rgb(255, 255, 255); opacity: 0.5; transform-origin: 135.316px 381.833px;" class="animable"></ellipse></g><g id="elbhbjgbqpfmu" class="animable" style="transform-origin: 133.627px 325.075px;"><ellipse cx="134.215" cy="297.302" rx="36.826" ry="12.629" style="fill: rgb(64, 123, 255); transform-origin: 134.215px 297.302px;" id="eldv1lllv0ae8" class="animable"></ellipse><path d="M137.574,279.84h-47.021s8.987,85.651,20.446,102.977h48.64c9.936-18.414,17.061-102.977,17.061-102.977h-39.126Z" style="fill: rgb(64, 123, 255); transform-origin: 133.627px 331.328px;" id="elbmdun2vhb0m" class="animable"></path><g id="elt5aql6xkh5"><path d="M137.574,279.84h-47.021s8.987,85.651,20.446,102.977h48.64c9.936-18.414,17.061-102.977,17.061-102.977h-39.126Z" style="fill: rgb(255, 255, 255); opacity: 0.5; transform-origin: 133.627px 331.328px;" class="animable"></path></g><g id="el3bo58fdhp4h" class="animable" style="transform-origin: 134.108px 335.357px;"><path d="M96.261,285.631s8.648,79.606,18.588,94.636h41.544c8.62-15.974,15.562-94.636,15.562-94.636H96.261Z" style="fill: rgb(64, 123, 255); transform-origin: 134.108px 332.949px;" id="elokb3ie582oj" class="animable"></path><path d="M156.394,380.267c0,2.659-9.3,4.815-20.772,4.815s-20.772-2.156-20.772-4.815,9.3-4.815,20.772-4.815,20.772,2.156,20.772,4.815Z" style="fill: rgb(64, 123, 255); transform-origin: 135.622px 380.267px;" id="el1qcg2o73q0c" class="animable"></path></g><ellipse cx="133.627" cy="279.84" rx="43.074" ry="14.772" style="fill: rgb(64, 123, 255); transform-origin: 133.627px 279.84px;" id="elmaxqq1k052p" class="animable"></ellipse><g id="elctrkc0mu1s5"><ellipse cx="133.627" cy="279.84" rx="43.074" ry="14.772" style="fill: rgb(255, 255, 255); opacity: 0.5; transform-origin: 133.627px 279.84px;" class="animable"></ellipse></g><ellipse cx="133.627" cy="279.84" rx="39.354" ry="12.463" style="fill: rgb(64, 123, 255); transform-origin: 133.627px 279.84px;" id="elu3dfer58m6" class="animable"></ellipse><g id="elopyiwjt6ja"><ellipse cx="133.627" cy="279.84" rx="39.354" ry="12.463" style="fill: rgb(255, 255, 255); opacity: 0.2; transform-origin: 133.627px 279.84px;" class="animable"></ellipse></g><path d="M97.962,285.363c6.43,4.112,19.809,6.941,35.28,6.941,16.119,0,29.966-3.07,36.05-7.464-4.741-5.609-18.824-9.678-35.462-9.678-17.151,0-31.58,4.324-35.868,10.201Z" style="fill: rgb(64, 123, 255); transform-origin: 133.627px 283.733px;" id="elmin1b086ij" class="animable"></path><g id="elyls0s9aipuo"><path d="M103.018,298.711s12.001,75.528,16.989,80.611c4.988,5.083,7.863,0,7.863,0l-7.863-75.262-16.989-5.349Z" style="fill: rgb(255, 255, 255); opacity: 0.2; transform-origin: 115.444px 340.146px;" class="animable"></path></g></g></g><g id="el6ellyz92s9c"><path d="M97.934,333.79s10.015,2.985,11.189,8.245c1.174,5.26,1.75,12.293,1.75,12.293,0,0,15.66,2.318,13.18,34.403,0,0-9.704-1.566-13.256-3.649-3.552-2.084-8.968-30.754-8.968-30.754l-3.894-20.538" style="opacity: 0.3; transform-origin: 111.127px 361.261px;" class="animable"></path></g></g><g id="eldif6yoly7yf" class="animable" style="transform-origin: 337.96px 355px;"><path d="M346.245,338.043c-1.395,1.317-3.271,2.129-5.341,2.129-4.302,0-7.79-3.488-7.79-7.79,0-.7,.101-1.375,.274-2.021l-14.044-8.391c-.48,.721-19.457,33.87-19.457,33.87h76.147l-29.789-17.798Z" style="fill: rgb(64, 123, 255); transform-origin: 337.96px 338.905px;" id="el2tbu6o399zq" class="animable"></path><path d="M369.739,370.683c0-3.674,2.547-6.746,5.969-7.567l.326-7.275h-76.147v32.188h74.706l.446-9.97c-3.08-1.04-5.3-3.946-5.3-7.376Z" style="fill: rgb(64, 123, 255); transform-origin: 337.96px 371.935px;" id="el8x0wb62himw" class="animable"></path><g id="elpdmi725auqc"><path d="M322.339,373.289c0,3.507-2.843,6.351-6.351,6.351s-6.351-2.843-6.351-6.351,2.843-6.351,6.351-6.351,6.351,2.843,6.351,6.351Z" style="opacity: 0.3; transform-origin: 315.988px 373.289px;" class="animable"></path></g><g id="ele8azmxtx3rg"><path d="M337.96,364.251c0,2.205-1.787,3.992-3.992,3.992s-3.992-1.787-3.992-3.992,1.787-3.992,3.992-3.992,3.992,1.787,3.992,3.992Z" style="opacity: 0.3; transform-origin: 333.968px 364.251px;" class="animable"></path></g><g id="elq74na5oluup"><path d="M358.061,377.264c0,2.205-1.787,3.992-3.992,3.992s-3.992-1.787-3.992-3.992,1.787-3.992,3.992-3.992,3.992,1.787,3.992,3.992Z" style="opacity: 0.3; transform-origin: 354.069px 377.264px;" class="animable"></path></g><g id="eloe1eqs227dg"><path d="M346.245,338.043c-1.395,1.317-3.271,2.129-5.341,2.129-4.302,0-7.79-3.488-7.79-7.79,0-.7,.101-1.375,.274-2.021l-14.044-8.391c-.48,.721-19.457,33.87-19.457,33.87h76.147l-29.789-17.798Z" style="fill: rgb(255, 255, 255); opacity: 0.4; transform-origin: 337.96px 338.905px;" class="animable"></path></g><g id="elr7ewsz8de9h"><path d="M324.902,346.68c0,1.793-1.787,3.247-3.992,3.247s-3.992-1.454-3.992-3.247,1.787-3.247,3.992-3.247,3.992,1.454,3.992,3.247Z" style="fill: rgb(64, 123, 255); opacity: 0.3; transform-origin: 320.91px 346.68px;" class="animable"></path></g><g id="el8yuve8k24ni"><path d="M352.557,349.927c0,2.716-2.707,4.918-6.046,4.918s-6.046-2.202-6.046-4.918,2.707-4.918,6.046-4.918,6.046,2.202,6.046,4.918Z" style="fill: rgb(64, 123, 255); opacity: 0.3; transform-origin: 346.511px 349.927px;" class="animable"></path></g><g id="el39j8l37zwuq"><path d="M369.739,370.683c0-3.674,2.547-6.746,5.969-7.567l.326-7.275h-76.147v32.188h74.706l.446-9.97c-3.08-1.04-5.3-3.946-5.3-7.376Z" style="fill: rgb(255, 255, 255); opacity: 0.6; transform-origin: 337.96px 371.935px;" class="animable"></path></g><g id="elrpnxwfwz4os"><path d="M346.245,338.043c-1.395,1.317-3.271,2.129-5.341,2.129-4.302,0-7.79-3.488-7.79-7.79,0-.7,.101-1.375,.274-2.021l-14.044-8.391c-.48,.721-19.457,33.87-19.457,33.87h76.147l-29.789-17.798Z" style="fill: rgb(255, 255, 255); opacity: 0.6; transform-origin: 337.96px 338.905px;" class="animable"></path></g></g><g id="eljczjh6xtk8h" class="animable" style="transform-origin: 261.687px 305.152px;"><g id="elkknwmgiyj6m" class="animable" style="transform-origin: 261.687px 305.152px;"><polygon points="195.053 253.547 232.487 218.835 239.294 194.332 301.853 207.302 298.508 233.809 277.409 271.243 195.053 253.547" style="fill: rgb(64, 123, 255); transform-origin: 248.453px 232.788px;" id="el2w19he3kjp7" class="animable"></polygon><path d="M328.319,245.788c-2.042,0-30.256-13.977-30.256-13.977l-20.654,39.432,50.911-25.455Z" style="fill: rgb(64, 123, 255); transform-origin: 302.865px 251.527px;" id="elebblmzk23z4" class="animable"></path><polygon points="195.053 253.547 201.57 397.086 277.409 415.972 277.409 271.243 195.053 253.547" style="fill: rgb(64, 123, 255); transform-origin: 236.231px 334.759px;" id="elaaia84v6uei" class="animable"></polygon><path d="M328.319,245.788l-7.139,138.708-43.772,31.476c.113-4.099,0-144.729,0-144.729l50.911-25.455Z" style="fill: rgb(64, 123, 255); transform-origin: 302.863px 330.88px;" id="elwvuvfkb97we" class="animable"></path><g id="elpaeozft6d7p"><path d="M198.199,322.822s-1.368,24.327,13.959,21.685c15.326-2.642,26.425-14.798,41.751-16.912,15.327-2.114,14.27,25.368,30.653,25.896,16.383,.528,4.228-25.896,20.611-37.523,16.383-11.627,21.107-30.546,21.107-30.546l-5.099,99.073-43.772,31.476-75.838-18.886-3.372-74.264Z" style="fill: rgb(255, 255, 255); opacity: 0.4; transform-origin: 262.224px 350.697px;" class="animable"></path></g><ellipse cx="251.535" cy="348.921" rx="7.075" ry="9.211" style="fill: rgb(64, 123, 255); transform-origin: 251.535px 348.921px;" id="elrsv3ikkoql" class="animable"></ellipse><g id="eld1j0yft1ys"><polygon points="297.318 233.233 232.487 218.835 195.053 253.547 277.409 271.243 297.318 233.233" style="opacity: 0.3; transform-origin: 246.185px 245.039px;" class="animable"></polygon></g><g id="elsiyi771t6ck"><polygon points="327.309 246.292 297.318 233.233 277.409 271.243 327.309 246.292" style="fill: rgb(255, 255, 255); opacity: 0.3; transform-origin: 302.359px 252.238px;" class="animable"></polygon></g><g id="elmciidyqraq"><polygon points="297.318 233.233 299.041 206.719 239.294 194.332 232.487 218.835 297.318 233.233" style="opacity: 0.2; transform-origin: 265.764px 213.783px;" class="animable"></polygon></g><g id="elyloh67ibjri" class="animable" style="transform-origin: 250.446px 242.401px;"><path d="M262.51,244.794c0,4.042-5.356,7.318-11.962,7.318s-11.962-3.276-11.962-7.318c0-1.115-.56-5.028,.169-5.974,1.914-2.482,7.01-1.344,11.793-1.344,4.408,0,9.677-.997,11.752,1.175,0,0,.211,4.799,.211,6.143Z" style="fill: rgb(255, 255, 255); transform-origin: 250.446px 244.664px;" id="el0xyi4gxyljn" class="animable"></path><g id="elu6eeg98xtr"><path d="M262.51,244.794c0,4.042-5.356,7.318-11.962,7.318s-11.962-3.276-11.962-7.318c0-1.115-.56-5.028,.169-5.974,1.914-2.482,7.01-1.344,11.793-1.344,4.408,0,9.677-.997,11.752,1.175,0,0,.211,4.799,.211,6.143Z" style="opacity: 0.2; transform-origin: 250.446px 244.664px;" class="animable"></path></g><ellipse cx="250.445" cy="240.008" rx="11.962" ry="7.318" style="fill: rgb(255, 255, 255); transform-origin: 250.445px 240.008px;" id="elcfi8u8icn0o" class="animable"></ellipse></g><g id="elpjbx9bljmi"><path d="M298.91,303.058c0,3.505-2.183,6.347-4.875,6.347s-4.875-2.842-4.875-6.347,2.183-6.347,4.875-6.347,4.875,2.842,4.875,6.347Z" style="fill: rgb(255, 255, 255); opacity: 0.4; transform-origin: 294.035px 303.058px;" class="animable"></path></g><g id="el45gyh28incy"><polygon points="195.053 253.547 201.57 397.086 277.409 415.972 277.409 271.243 195.053 253.547" style="opacity: 0.2; transform-origin: 236.231px 334.759px;" class="animable"></polygon></g></g><g id="elbcal0byk2o9"><path d="M237.62,406.064s14.485-20.52,39.789-25.484c25.304-4.963,35.094,10.156,35.094,10.156l-35.094,25.236-39.789-9.909Z" style="opacity: 0.3; transform-origin: 275.061px 397.776px;" class="animable"></path></g></g><g id="elqo4lu1522di" class="animable" style="transform-origin: 248.43px 416.222px;"><path d="M225.825,450.456s-22.381-14.774-25.434-19.357c-2.878-4.32-2.189-13.165-.581-15.646,3.735-5.764,50.909-43.377,73.437-30.973,22.528,12.404,23.385,11.71,24.487,17.627,1.102,5.917,.694,6.815,.254,6.832-.441,.016-72.163,41.518-72.163,41.518Z" style="fill: rgb(64, 123, 255); transform-origin: 248.429px 416.222px;" id="elpvbvtm9bxb" class="animable"></path><g id="elx2lbtxjmz7"><path d="M229.146,448.67c-.169,0-.334-.086-.428-.241-1.237-2.042-1.844-4.367-2.43-6.616-.273-1.046-.555-2.127-.896-3.156-1.007-3.042-2.626-5.926-4.193-8.715-1.965-3.498-3.996-7.115-4.872-11.117-.782-3.573-.343-6.78,1.236-9.031,1.774-2.528,4.861-3.725,7.028-4.405,7.621-2.389,15.782-2.37,23.663-2.345l1.438,.003c4.932,.008,10.033,.017,14.325,2.508,2.661,1.546,4.929,4.025,6.741,7.371,1.589,2.934,2.627,6.135,3.631,9.23,.085,.263-.059,.545-.321,.63-.265,.087-.545-.06-.63-.321-.99-3.053-2.014-6.21-3.559-9.062-1.724-3.182-3.865-5.531-6.364-6.982-4.061-2.357-9.024-2.365-13.825-2.373l-1.439-.003c-7.811-.029-15.889-.044-23.361,2.3-2.028,.636-4.909,1.745-6.509,4.024-1.911,2.725-1.496,6.334-1.078,8.244,.844,3.855,2.838,7.406,4.767,10.84,1.589,2.831,3.233,5.758,4.27,8.891,.351,1.06,.637,2.157,.914,3.219,.594,2.279,1.156,4.433,2.318,6.351,.143,.236,.067,.543-.168,.687-.081,.049-.17,.072-.259,.072Z" style="fill: rgb(255, 255, 255); opacity: 0.3; transform-origin: 245.181px 425.856px;" class="animable"></path></g><g id="el7tmqpjwh6rp"><path d="M238.358,442.404c-.264,0-.484-.206-.499-.473-.314-5.709-.705-12.815-4.473-18.03-.29-.401-.599-.791-.908-1.18-.633-.799-1.288-1.625-1.785-2.558-.908-1.706-1.041-3.461-.364-4.816,1.01-2.021,3.375-2.656,5.781-3.041,3.151-.502,6.725-1.072,10.225-.791,3.884,.313,7.26,1.718,9.506,3.955,3.12,3.109,4.098,7.474,4.973,12.439,.048,.272-.133,.531-.405,.579-.273,.052-.531-.134-.579-.405-.845-4.796-1.782-9.002-4.695-11.904-2.079-2.07-5.232-3.373-8.88-3.668-3.382-.27-6.891,.289-9.987,.783-2.142,.342-4.236,.882-5.044,2.5-.522,1.046-.39,2.504,.353,3.898,.454,.854,1.052,1.607,1.686,2.406,.318,.401,.636,.803,.935,1.216,3.94,5.453,4.34,12.722,4.661,18.562,.016,.275-.196,.512-.472,.526h-.028Z" style="fill: rgb(255, 255, 255); opacity: 0.3; transform-origin: 245.362px 426.922px;" class="animable"></path></g><g id="el9u97y26yyog"><path d="M285.95,416.148c-.245,0-.458-.18-.495-.429-.508-3.524-1.063-6.95-2.26-10.112-1.347-3.559-3.394-6.36-5.92-8.104-2.765-1.906-6.244-2.655-9.289-3.208-13.207-2.402-24.183-2.93-35.586-1.715-.274,.032-.521-.169-.55-.444-.029-.274,.169-.521,.444-.55,11.504-1.226,22.567-.694,35.871,1.725,3.146,.571,6.749,1.351,9.677,3.369,2.694,1.859,4.869,4.823,6.288,8.573,1.232,3.256,1.798,6.741,2.314,10.323,.039,.273-.15,.526-.424,.566-.024,.003-.048,.005-.072,.005Z" style="fill: rgb(255, 255, 255); opacity: 0.3; transform-origin: 259.148px 403.549px;" class="animable"></path></g><g id="elhl9f9o7v865"><path d="M277.63,388.707c-.055,0-.11-.009-.165-.027-8.292-2.888-16.958-4.29-25.725-4.17-.282-.011-.503-.218-.507-.493-.004-.276,.217-.503,.493-.507,8.895-.124,17.666,1.299,26.068,4.225,.261,.091,.398,.376,.308,.637-.072,.207-.265,.336-.472,.336Z" style="fill: rgb(255, 255, 255); opacity: 0.3; transform-origin: 264.681px 386.105px;" class="animable"></path></g><g id="elpu2pfgcpx0g"><path d="M211.466,439.726c-.181,0-.355-.098-.444-.27-.639-1.23-1.663-2.871-2.747-4.607-2.174-3.482-4.639-7.431-5.348-10.148-.843-3.229-1.432-8.021,.548-12.501,.112-.251,.407-.367,.66-.255,.252,.111,.367,.406,.255,.659-1.864,4.217-1.298,8.769-.496,11.845,.671,2.57,3.092,6.449,5.229,9.871,1.095,1.754,2.129,3.41,2.787,4.676,.127,.245,.032,.547-.213,.674-.074,.039-.152,.057-.23,.057Z" style="fill: rgb(255, 255, 255); opacity: 0.3; transform-origin: 207.054px 425.815px;" class="animable"></path></g><g id="elhtd28loi2jv"><path d="M297.734,402.106c-.324-1.739-.631-2.907-1.47-4.004-1.867-.322-15.363-.292-29.788,7.054-14.425,7.347-39.461,29.123-39.668,31.717-.653,8.184-.983,13.582-.983,13.582,0,0,71.722-41.502,72.163-41.518,.441-.016,.849-.914-.254-6.831Z" style="opacity: 0.3; transform-origin: 262.133px 424.229px;" class="animable"></path></g><g id="elpmmzcgkc5z"><path d="M199.561,415.913c-1.421,2.965-1.893,11.097,.83,15.185,3.053,4.583,25.434,19.357,25.434,19.357l.853-13.944c-8.239-4.623-21.68-15.799-27.117-20.598Z" style="fill: rgb(255, 255, 255); opacity: 0.3; transform-origin: 212.549px 433.184px;" class="animable"></path></g></g><g id="el4gaf9n6ftul" class="animable" style="transform-origin: 352.502px 402.423px;"><path d="M331.326,394.736c2.006-.684,4.114-1.008,6.209-1.329-3.237-.727-6.294-2.242-8.834-4.377,3.857-1.099,8.159-.533,11.6,1.528-2.408-3.135-4.165-6.767-5.13-10.6,4.004,1.316,7.293,4.635,8.574,8.65,.459-3.688,.918-7.377,1.377-11.065,.053-.426,.144-.911,.514-1.127,.485-.282,1.085,.088,1.484,.482,2.265,2.235,3.021,5.656,2.723,8.825-.297,3.168-1.517,6.166-2.724,9.111l-3.245,2.333c-5.392,3.01-12.187,3.362-17.861,.926,1.386-1.603,3.306-2.673,5.312-3.357Z" style="fill: rgb(38, 50, 56); transform-origin: 337.959px 388.009px;" id="els3obvqbw95d" class="animable"></path><path d="M335.441,414.903c-1.518-3.312-1.331-7.253,.037-10.63,1.367-3.377,4.353-7.237,9.075-8.941-.166,.289,4.669-9.473,11.178-10.8,5.537-1.129,13.159,2.079,16.716,6.469,2.75,3.394,3.955,7.789,4.533,12.119s.6,8.727,1.333,13.034c.55,3.234,1.413,6.884-.507,9.544-1.004,1.391-2.637,2.23-4.315,2.583s-3.416,.269-5.125,.118c-6.368-.563-12.632-2.013-18.748-3.872-2.819-.857-5.637-1.813-8.168-3.322-2.531-1.509-4.781-3.622-6.009-6.3Z" style="fill: rgb(64, 123, 255); transform-origin: 356.683px 406.417px;" id="eld8brd5c4l66" class="animable"></path><g id="el2w31njd0im4"><g style="opacity: 0.2; transform-origin: 356.683px 406.417px;" class="animable"><path d="M335.441,414.903c-1.518-3.312-1.331-7.253,.037-10.63,1.367-3.377,4.353-7.237,9.075-8.941-.166,.289,4.669-9.473,11.178-10.8,5.537-1.129,13.159,2.079,16.716,6.469,2.75,3.394,3.955,7.789,4.533,12.119s.6,8.727,1.333,13.034c.55,3.234,1.413,6.884-.507,9.544-1.004,1.391-2.637,2.23-4.315,2.583s-3.416,.269-5.125,.118c-6.368-.563-12.632-2.013-18.748-3.872-2.819-.857-5.637-1.813-8.168-3.322-2.531-1.509-4.781-3.622-6.009-6.3Z" id="el9u2ldaheg0q" class="animable" style="transform-origin: 356.683px 406.417px;"></path></g></g><g id="eli4jq7mcx1sp"><g style="opacity: 0.3; transform-origin: 359.709px 406.417px;" class="animable"><path d="M369.041,427.617c1.3,.11,2.806,.124,3.666-.857,.59-.673,1.059-4.133,1.092-5.028,.365-9.698-4.591-18.747-9.908-26.866-1.434-2.19-2.926-4.379-4.867-6.135-1.718-1.555-3.841-2.756-6.12-3.079,.897-.523,1.842-.919,2.827-1.12,5.537-1.129,13.159,2.079,16.716,6.469,2.75,3.394,3.955,7.789,4.533,12.119s.6,8.727,1.333,13.034c.55,3.234,1.413,6.884-.507,9.544-1.004,1.391-2.637,2.23-4.315,2.583s-3.416,.269-5.125,.118c-6.368-.563-12.632-2.013-18.748-3.872-2.819-.857-5.637-1.813-8.168-3.322-.347-.207-.688-.426-1.023-.656,6.18,2.999,18.865,6.247,28.614,7.069Z" style="fill: rgb(255, 255, 255); transform-origin: 359.709px 406.417px;" id="elpx5e3xrxol" class="animable"></path></g></g><path d="M362.773,416.089l.165-.391c.53,.139,1.009,.466,1.331,.91,.136,.187,.246,.402,.263,.633,.016,.231-.077,.479-.274,.601-.189,.117-.44,.098-.637-.005s-.345-.28-.464-.468c-.241-.382-.375-.829-.385-1.28Z" style="fill: rgb(255, 255, 255); transform-origin: 363.653px 416.81px;" id="el20er33yzwqp" class="animable"></path><path d="M370.374,422.73l.165-.39c.53,.138,1.009,.466,1.331,.909,.136,.188,.246,.402,.263,.633,.016,.231-.077,.479-.274,.601-.189,.117-.44,.098-.637-.005-.196-.103-.345-.28-.464-.467-.24-.382-.375-.829-.385-1.281Z" style="fill: rgb(255, 255, 255); transform-origin: 371.254px 423.452px;" id="elm2jln3puzol" class="animable"></path><path d="M372.68,414.039l.165-.39c.53,.138,1.009,.466,1.331,.91,.136,.187,.246,.402,.263,.633,.017,.231-.077,.479-.274,.601-.189,.117-.44,.098-.637-.005-.196-.103-.345-.28-.464-.468-.24-.382-.375-.829-.385-1.281Z" style="fill: rgb(255, 255, 255); transform-origin: 373.56px 414.761px;" id="ela5cy0zbh84g" class="animable"></path><path d="M365.838,408.185l.165-.39c.53,.138,1.009,.466,1.331,.91,.136,.187,.246,.402,.263,.633,.017,.231-.077,.479-.274,.601-.189,.117-.44,.098-.637-.005-.197-.103-.345-.28-.464-.468-.24-.382-.375-.829-.385-1.28Z" style="fill: rgb(255, 255, 255); transform-origin: 366.718px 408.907px;" id="el7f9ng55b15j" class="animable"></path><path d="M371.781,401.568l.165-.39c.53,.138,1.009,.466,1.331,.909,.136,.187,.246,.402,.263,.633,.017,.231-.077,.479-.274,.601-.189,.117-.44,.098-.636-.005-.197-.103-.345-.28-.464-.468-.241-.382-.375-.83-.385-1.281Z" style="fill: rgb(255, 255, 255); transform-origin: 372.661px 402.29px;" id="eltcoab0i3fze" class="animable"></path><path d="M352.421,415.455l.165-.391c.53,.139,1.009,.466,1.331,.91,.136,.187,.246,.402,.263,.633,.016,.231-.077,.479-.274,.601-.189,.117-.44,.098-.637-.005-.196-.103-.345-.28-.464-.468-.241-.382-.375-.829-.385-1.28Z" style="fill: rgb(255, 255, 255); transform-origin: 353.301px 416.176px;" id="elii6j22dxe1" class="animable"></path><path d="M348.427,420.957l.165-.391c.53,.138,1.009,.466,1.331,.91,.136,.187,.246,.402,.263,.633s-.077,.479-.274,.601c-.189,.117-.44,.098-.637-.005-.196-.103-.345-.28-.464-.468-.24-.382-.375-.829-.385-1.28Z" style="fill: rgb(255, 255, 255); transform-origin: 349.307px 421.678px;" id="elkbuzc1b09n" class="animable"></path><path d="M358.258,423.175l-.038-.422c.533-.128,1.11-.065,1.602,.176,.208,.101,.407,.239,.53,.435,.123,.196,.158,.459,.042,.659-.111,.192-.342,.294-.564,.295s-.436-.084-.629-.194c-.392-.223-.721-.555-.942-.948Z" style="fill: rgb(255, 255, 255); transform-origin: 359.342px 423.503px;" id="el1t264igq0q" class="animable"></path><path d="M363.234,399.813l.165-.39c.53,.138,1.009,.466,1.331,.909,.136,.188,.246,.402,.263,.633,.016,.231-.077,.479-.274,.601-.189,.117-.44,.098-.637-.005-.196-.103-.345-.28-.464-.467-.241-.382-.375-.83-.385-1.281Z" style="fill: rgb(255, 255, 255); transform-origin: 364.114px 400.535px;" id="ele5050pltpym" class="animable"></path><path d="M365.73,391.479l.165-.39c.53,.138,1.009,.466,1.331,.91,.136,.187,.246,.402,.263,.633,.016,.231-.077,.479-.274,.601-.189,.117-.44,.098-.636-.005-.197-.103-.345-.28-.464-.468-.241-.382-.375-.829-.385-1.28Z" style="fill: rgb(255, 255, 255); transform-origin: 366.61px 392.201px;" id="el3xs7xut39o7" class="animable"></path><path d="M357.028,408.09l.165-.39c.53,.138,1.009,.466,1.331,.91,.136,.187,.246,.402,.263,.633s-.077,.479-.274,.601c-.189,.117-.44,.098-.637-.005-.197-.103-.345-.28-.464-.468-.24-.382-.375-.829-.385-1.281Z" style="fill: rgb(255, 255, 255); transform-origin: 357.908px 408.812px;" id="elfn8dpmpned9" class="animable"></path><path d="M348.32,407.65l.165-.39c.53,.138,1.009,.466,1.331,.91,.136,.187,.246,.402,.263,.633,.016,.231-.077,.479-.274,.601-.189,.117-.44,.098-.637-.005-.197-.103-.345-.28-.464-.468-.241-.382-.375-.829-.385-1.28Z" style="fill: rgb(255, 255, 255); transform-origin: 349.2px 408.372px;" id="eldt8t1t4peo" class="animable"></path><path d="M341.522,416.238l.165-.39c.53,.138,1.009,.466,1.331,.91,.136,.187,.246,.402,.263,.633,.016,.231-.077,.479-.274,.601-.189,.117-.44,.098-.637-.005s-.345-.28-.464-.468c-.24-.382-.375-.829-.385-1.28Z" style="fill: rgb(255, 255, 255); transform-origin: 342.402px 416.96px;" id="elibe1rer4q9i" class="animable"></path><path d="M355.241,396.465l.089-.414c.547,.037,1.079,.269,1.478,.644,.168,.159,.317,.349,.377,.573,.059,.224,.014,.485-.156,.642-.163,.15-.414,.179-.626,.114-.212-.065-.392-.21-.543-.372-.308-.33-.524-.745-.617-1.186Z" style="fill: rgb(255, 255, 255); transform-origin: 356.225px 397.054px;" id="el9sg6bbnlhu5" class="animable"></path><path d="M346.865,399.065l.089-.414c.547,.037,1.079,.269,1.478,.644,.168,.159,.317,.349,.377,.573,.059,.224,.014,.485-.156,.642-.163,.15-.414,.179-.626,.114-.212-.065-.392-.21-.543-.372-.308-.33-.524-.745-.618-1.186Z" style="fill: rgb(255, 255, 255); transform-origin: 347.849px 399.654px;" id="eliiv20wspts" class="animable"></path><path d="M339.28,406.237l.089-.414c.547,.037,1.079,.269,1.478,.644,.169,.159,.317,.349,.377,.573,.059,.224,.014,.485-.156,.642-.163,.15-.414,.179-.626,.114-.212-.065-.392-.21-.543-.373-.308-.33-.524-.745-.618-1.186Z" style="fill: rgb(255, 255, 255); transform-origin: 340.264px 406.826px;" id="elm4p181yfwao" class="animable"></path><path d="M357.169,387.273l.089-.415c.547,.037,1.079,.269,1.478,.644,.169,.159,.317,.349,.377,.573,.059,.224,.014,.485-.156,.642-.163,.15-.414,.179-.626,.114-.212-.065-.392-.21-.543-.373-.308-.33-.524-.745-.617-1.186Z" style="fill: rgb(255, 255, 255); transform-origin: 358.153px 387.861px;" id="el6xq3gtjhcs2" class="animable"></path></g><g id="freepik--freepik--Tomato--inject-2--inject-38" class="animable" style="transform-origin: 298.441px 415.616px;"><path d="M307.695,395.391c-1.595-.002-3.186,.142-4.757,.431-2.972,.536-6.009,.536-8.981,0-1.575-.29-3.171-.434-4.77-.431-15.179,0-27.501,12.491-27.501,27.922s12.322,27.923,27.501,27.923c.992,.003,1.983-.054,2.969-.17,4.182-.47,8.4-.47,12.583,0,.981,.116,1.968,.173,2.956,.17,15.191,0,27.501-12.504,27.501-27.923s-12.31-27.922-27.501-27.922Z" style="fill: rgb(64, 123, 255); transform-origin: 298.441px 423.314px;" id="elfnk2bj8cqx4" class="animable"></path><path d="M307.695,395.391c-1.595-.002-3.186,.142-4.757,.431-2.972,.536-6.009,.536-8.981,0-1.575-.29-3.171-.434-4.77-.431-15.179,0-27.501,12.491-27.501,27.922s12.322,27.923,27.501,27.923c.992,.003,1.983-.054,2.969-.17,4.182-.47,8.4-.47,12.583,0,.981,.116,1.968,.173,2.956,.17,15.191,0,27.501-12.504,27.501-27.923s-12.31-27.922-27.501-27.922Z" style="fill: rgb(64, 123, 255); transform-origin: 298.441px 423.314px;" id="elkkjd83kf05g" class="animable"></path><g id="elq2daal3d5d"><path d="M307.695,395.391c-1.595-.002-3.186,.142-4.757,.431-2.972,.536-6.009,.536-8.981,0-1.575-.29-3.171-.434-4.77-.431-15.179,0-27.501,12.491-27.501,27.922s12.322,27.923,27.501,27.923c.992,.003,1.983-.054,2.969-.17,4.182-.47,8.4-.47,12.583,0,.981,.116,1.968,.173,2.956,.17,15.191,0,27.501-12.504,27.501-27.923s-12.31-27.922-27.501-27.922Z" style="opacity: 0.3; transform-origin: 298.441px 423.314px;" class="animable"></path></g><g id="eldrzfgalfq8l"><g style="opacity: 0.2; transform-origin: 281.305px 414.961px;" class="animable"><path d="M297.489,406.731c-.254-3.523-2.929-7.255-6.204-8.04-3.274-.785-4.911-1.901-12.773,1.321-7.612,3.447-13.029,11.709-13.389,20.419-.13,3.153,.423,6.492,2.344,8.916,1.921,2.424,5.463,3.587,8.055,1.998,2.861-1.753,3.464-5.777,5.403-8.599,2.31-3.361,6.323-4.775,9.826-6.676,3.503-1.902,7.035-5.203,6.737-9.338Z" style="fill: rgb(255, 255, 255); transform-origin: 281.305px 414.961px;" id="elfc3150a85q9" class="animable"></path></g></g><path d="M309.425,395.826c3.829-.989,7.657-1.978,11.486-2.967-3.796-2.979-9.064-3.746-13.487-1.964,1.697-2.602,3.395-5.204,5.092-7.806-5.33-.559-10.774,3.03-12.73,8.253-2.932-3.332-7.185-5.378-11.51-5.408,2.45,1.73,4.359,4.294,5.368,7.211-5.883-1.079-12.023-.57-17.673,1.465,6.019,.936,12.038,1.871,18.057,2.807-2.541,2.104-5.083,4.208-7.624,6.312,2.415-.597,4.689-1.693,7.045-2.513,2.356-.819,4.888-1.363,7.313-.809,2.424,.554,4.704,2.425,5.201,4.982l-.013-7.372c2.513,.901,4.874,2.272,6.939,4.028-.458-2.399-1.698-4.625-3.463-6.22Z" style="fill: rgb(38, 50, 56); transform-origin: 298.441px 394.21px;" id="elgt3o6vtnck5" class="animable"></path><path d="M297.398,394.986c-.373-3.528,1.677-9.996-1.043-14.138,0,0,3.279-2.352,5.204,.758,1.141,4.558,.416,9.41-2,13.38-.298,.536-1.962,1.96-2.161,0Z" style="fill: rgb(38, 50, 56); transform-origin: 299.221px 387.992px;" id="el5kbso7f1dj6" class="animable"></path><g id="elgmbx0zcbote"><path d="M297.398,394.986c-.373-3.528,1.677-9.996-1.043-14.138,0,0,3.279-2.352,5.204,.758,1.141,4.558,.416,9.41-2,13.38-.298,.536-1.962,1.96-2.161,0Z" style="fill: rgb(255, 255, 255); isolation: isolate; opacity: 0.2; transform-origin: 299.221px 387.992px;" class="animable"></path></g><g id="elsylt4mpmtr"><path d="M301.559,381.606c-1.925-3.11-5.204-.758-5.204-.758,0,0,2.571,2.914,5.204,.758Z" style="fill: rgb(255, 255, 255); isolation: isolate; opacity: 0.4; transform-origin: 298.957px 381.198px;" class="animable"></path></g></g><g id="elk6dkluskbp" class="animable" style="transform-origin: 160.268px 398.7px;"><path d="M198.895,392.739c-2.533-8.301-9.702-14.511-18.342-15.333-1.722-.164-3.358-.129-4.794,.117-5.574,.955-11.339,3.711-14.823,8.292-.785-2.737-2.931-4.926-5.506-6.088-3.944-1.781-8.438-2.297-12.719-1.609-7.017,1.128-13.272,5.546-17.422,11.316-4.579,6.366-6.75,14.421-5.99,22.226,.76,7.805,4.443,15.29,10.164,20.654,2.569,2.409,8.13,6.268,11.179,8.032,0,0,14.302,6.287,28.786,3.1s27.115-9.748,31.325-30.186c1.689-8.2-.37-15.649-1.856-20.519Z" style="fill: rgb(64, 123, 255); transform-origin: 160.268px 410.826px;" id="elseciax1boa8" class="animable"></path><g id="eltoilsqj9x9"><path d="M198.895,392.739c-2.533-8.301-9.702-14.511-18.342-15.333-1.722-.164-3.358-.129-4.794,.117-5.574,.955-11.339,3.711-14.823,8.292-.785-2.737-2.931-4.926-5.506-6.088-3.944-1.781-8.438-2.297-12.719-1.609-7.017,1.128-13.272,5.546-17.422,11.316-4.579,6.366-6.75,14.421-5.99,22.226,.76,7.805,4.443,15.29,10.164,20.654,2.569,2.409,8.13,6.268,11.179,8.032,0,0,14.302,6.287,28.786,3.1s27.115-9.748,31.325-30.186c1.689-8.2-.37-15.649-1.856-20.519Z" style="opacity: 0.3; transform-origin: 160.268px 410.826px;" class="animable"></path></g><g id="elvl0fsr3hwg"><path d="M185.585,378.549c6.069,4.978,9.947,9.52,10.705,18.918,.961,11.91-.41,29.054-13.305,39.009-4.095,3.161-11.719,5.675-23.35,7.851,3.14,.078,6.459-.15,9.79-.883,14.484-3.187,27.115-9.748,31.325-30.186,1.689-8.2-.37-15.649-1.856-20.519-2.021-6.622-6.996-11.903-13.31-14.19Z" style="opacity: 0.3; transform-origin: 180.509px 411.445px;" class="animable"></path></g><path d="M162.378,386.119s-13.876-25.98,29.523-33.066c0,0,6.495,36.609-29.523,33.066Z" style="fill: rgb(38, 50, 56); transform-origin: 176.312px 369.707px;" id="el3glt68xn5cd" class="animable"></path><path d="M159.721,388.776s.562-12.4-9.904-22.142l9.91-7.381s5.604,14.762,4.128,29.523h-4.133Z" style="fill: rgb(162, 78, 63); transform-origin: 156.96px 374.014px;" id="elzyxe8l8shln" class="animable"></path><g id="eljpt211qgb"><g style="opacity: 0.2; transform-origin: 139.576px 394.736px;" class="animable"><path d="M136.569,383.13c-6.337,3.34-10.787,10.02-11.428,17.155-.213,2.372,.071,5.01,1.775,6.675,1.322,1.292,3.293,1.748,5.136,1.593s3.593-.852,5.283-1.601c4.855-2.152,9.553-4.853,13.257-8.659,.471-.484,.925-.999,1.36-1.542,5.551-6.925-.585-17.285-9.317-15.699-2.111,.383-4.164,1.076-6.065,2.078Z" style="fill: rgb(255, 255, 255); transform-origin: 139.576px 394.736px;" id="elej9thyeidig" class="animable"></path></g></g></g><g id="elxc7bz60q2ic" class="animable" style="transform-origin: 75.9645px 384.943px;"><ellipse cx="75.904" cy="426.965" rx="25.037" ry="8.512" style="fill: rgb(64, 123, 255); transform-origin: 75.904px 426.965px;" id="elisgrtl18m8" class="animable"></ellipse><g id="eli8zliruamxp"><ellipse cx="75.904" cy="426.965" rx="25.037" ry="8.512" style="fill: rgb(255, 255, 255); opacity: 0.2; transform-origin: 75.904px 426.965px;" class="animable"></ellipse></g><g id="el6lbz5dh7r19" class="animable" style="transform-origin: 75.9645px 390.102px;"><path d="M100.346,355.941v-4.093l-17.38-.249v-.201l-7.001,.1-7.002-.1v.201l-17.38,.249v4.093s-18.557,14.464-14.736,34.658c3.82,20.194,14.736,38.206,14.736,38.206h48.763s10.916-18.011,14.736-38.206c3.821-20.194-14.736-34.658-14.736-34.658Z" style="fill: rgb(64, 123, 255); transform-origin: 75.9645px 390.102px;" id="elx8tlhbzvdue" class="animable"></path><g id="ellg544riwtej"><path d="M97.704,358.862v-6.487H54.226v6.487s-16.546,12.896-13.139,30.902c3.407,18.006,13.139,34.065,13.139,34.065h43.478s9.733-16.059,13.139-34.065c3.407-18.006-13.139-30.902-13.139-30.902Z" style="fill: rgb(255, 255, 255); opacity: 0.2; transform-origin: 75.965px 388.102px;" class="animable"></path></g><g id="elf89dtsck6hh"><path d="M100.346,355.941v-4.093l-17.38-.249v-.201l-7.001,.1-7.002-.1v.201l-17.38,.249v4.093s-18.557,14.464-14.736,34.658c3.82,20.194,14.736,38.206,14.736,38.206h48.763s10.916-18.011,14.736-38.206c3.821-20.194-14.736-34.658-14.736-34.658Z" style="fill: rgb(255, 255, 255); opacity: 0.2; transform-origin: 75.9645px 390.102px;" class="animable"></path></g><path d="M41.086,389.764c3.407,18.006,13.139,34.065,13.139,34.065h43.478s9.733-16.059,13.139-34.065H41.086Z" style="fill: rgb(64, 123, 255); transform-origin: 75.964px 406.797px;" id="el8rg0nid9uki" class="animable"></path></g><ellipse cx="76.066" cy="422.531" rx="22.023" ry="7.278" style="fill: rgb(64, 123, 255); transform-origin: 76.066px 422.531px;" id="elwtwmdeezcwi" class="animable"></ellipse><ellipse cx="75.965" cy="389.764" rx="34.878" ry="7.278" style="fill: rgb(64, 123, 255); transform-origin: 75.965px 389.764px;" id="elpelo6e0j5u" class="animable"></ellipse><g id="elnumph4na4vd"><ellipse cx="75.965" cy="389.764" rx="34.878" ry="7.278" style="fill: rgb(255, 255, 255); opacity: 0.2; transform-origin: 75.965px 389.764px;" class="animable"></ellipse></g><g id="elp35y4aicre" class="animable" style="transform-origin: 75.9644px 345.603px;"><ellipse cx="75.941" cy="342.655" rx="27.636" ry="8.245" style="fill: rgb(38, 50, 56); transform-origin: 75.941px 342.655px;" id="elnlwm2tuotd9" class="animable"></ellipse><path d="M103.577,348.551c0,4.554-12.373,8.245-27.636,8.245s-27.636-3.692-27.636-8.245c0-.8-.36-6.157,.351-6.888,3.341-3.433,14.702-1.357,27.285-1.357,11.447,0,24.121-2.235,27.476,1.459,.559,.616,.16,5.648,.16,6.786Z" style="fill: rgb(38, 50, 56); transform-origin: 75.9644px 348.216px;" id="elsjqnunjhcoj" class="animable"></path><g id="elnyq10sag1q"><ellipse cx="75.941" cy="342.655" rx="27.636" ry="8.245" style="fill: rgb(255, 255, 255); opacity: 0.2; transform-origin: 75.941px 342.655px;" class="animable"></ellipse></g></g><polygon points="71.664 388.55 65.251 388.55 62.045 394.104 65.251 399.658 71.664 399.658 74.871 394.104 71.664 388.55" style="fill: rgb(255, 255, 255); transform-origin: 68.458px 394.104px;" id="elo3vv64lu4vt" class="animable"></polygon><g id="elh577flvsh2l" class="animable" style="transform-origin: 76.067px 393.296px;"><g id="elkhengh02nb"><ellipse cx="76.067" cy="393.296" rx="21.864" ry="21.256" style="fill: rgb(255, 255, 255); opacity: 0.2; transform-origin: 76.067px 393.296px;" class="animable"></ellipse></g><polygon points="82.4 394.51 75.987 394.51 72.78 400.063 75.987 405.617 82.4 405.617 85.606 400.063 82.4 394.51" style="fill: rgb(255, 255, 255); transform-origin: 79.193px 400.064px;" id="eloal2nr4ahxm" class="animable"></polygon></g><polygon points="82.678 382.04 76.265 382.04 73.058 387.594 76.265 393.147 82.678 393.147 85.885 387.594 82.678 382.04" style="fill: rgb(255, 255, 255); transform-origin: 79.4715px 387.594px;" id="elkim26p76qfc" class="animable"></polygon></g></g><defs>     <filter id="active" height="200%">         <feMorphology in="SourceAlpha" result="DILATED" operator="dilate" radius="2"></feMorphology>                <feFlood flood-color="#32DFEC" flood-opacity="1" result="PINK"></feFlood>        <feComposite in="PINK" in2="DILATED" operator="in" result="OUTLINE"></feComposite>        <feMerge>            <feMergeNode in="OUTLINE"></feMergeNode>            <feMergeNode in="SourceGraphic"></feMergeNode>        </feMerge>    </filter>    <filter id="hover" height="200%">        <feMorphology in="SourceAlpha" result="DILATED" operator="dilate" radius="2"></feMorphology>                <feFlood flood-color="#ff0000" flood-opacity="0.5" result="PINK"></feFlood>        <feComposite in="PINK" in2="DILATED" operator="in" result="OUTLINE"></feComposite>        <feMerge>            <feMergeNode in="OUTLINE"></feMergeNode>            <feMergeNode in="SourceGraphic"></feMergeNode>        </feMerge>            <feColorMatrix type="matrix" values="0   0   0   0   0                0   1   0   0   0                0   0   0   0   0                0   0   0   1   0 "></feColorMatrix>    </filter></defs></svg>